<?xml version="1.0" encoding="UTF-8" standalone="no"?>
<svg
   xmlns:dc="http://purl.org/dc/elements/1.1/"
   xmlns:cc="http://creativecommons.org/ns#"
   xmlns:rdf="http://www.w3.org/1999/02/22-rdf-syntax-ns#"
   xmlns:svg="http://www.w3.org/2000/svg"
   xmlns="http://www.w3.org/2000/svg"
   viewBox="0 0 4266.6665 2666.6667"
   height="2666.6667"
   width="4266.6665"
   xml:space="preserve"
   id="svg2"
   version="1.1"><metadata
     id="metadata8"><rdf:RDF><cc:Work
         rdf:about=""><dc:format>image/svg+xml</dc:format><dc:type
           rdf:resource="http://purl.org/dc/dcmitype/StillImage" /></cc:Work></rdf:RDF></metadata><defs
     id="defs6" /><g
     transform="matrix(1.3333333,0,0,-1.3333333,0,2666.6667)"
     id="g10"><g
       transform="scale(0.1)"
       id="g12"><g
         transform="scale(1.96319)"
         id="g14"><path
           id="path16"
           style="fill:#ffffff;fill-opacity:1;fill-rule:nonzero;stroke:none"
           d="M 0,10187.5 V 0 H 16300 V 10187.5 H 0" /></g><g
         transform="scale(1.93479)"
         id="g18"><path
           id="path20"
           style="fill:#ebf3fa;fill-opacity:1;fill-rule:nonzero;stroke:none"
           d="m 14977.3,1852.6 c -84.7,-135.67 -173.6,-252.01 -265.8,-347.06 -2.1,-1.4 -3.5,-3.47 -5.6,-4.81 l -1.3,-1.39 H 1946.27 c 0,0 -2.07,5.53 -5.51,16.54 0,1.39 -0.69,2.73 -1.38,4.13 -1.38,6.87 -4.13,15.14 -6.89,25.48 -2.06,4.81 -3.44,10.34 -5.5,15.82 v 0.72 c -1.38,6.2 -3.45,13.08 -5.51,20.62 v 0.72 c -59.22,203.13 -206.57,751.2 -291.95,1428.07 -2.07,14.47 -4.13,28.89 -5.51,43.36 0,2.07 -0.69,3.46 -0.69,5.53 v 0.67 c -2.75,20.68 -4.82,40.63 -6.88,61.97 -125.32,1089.99 -76.43,2472.62 736.07,3289.94 744.33,747.77 1799.2,1204.29 2905.72,1377.81 1113.4,174.2 2280.5,61.28 3236.89,-329.83 2160.07,-884.8 2263.37,1671.83 5184.17,1136.82 106.1,-19.29 207.3,-44.76 303.7,-76.44 154.9,-50.95 298.1,-116.36 431,-195.55 1886,-1125.1 1509.3,-4959.67 563.3,-6473.12" /></g><path
         id="path22"
         style="fill:#deedff;fill-opacity:1;fill-rule:nonzero;stroke:none"
         d="M 10173.6,15073.4 V 2900.9 H 3765.62 c 0,0 -9.33,28 -25.32,80 -7.99,26.6 -17.32,59.9 -29.3,99.9 -2.67,9.3 -5.34,20 -7.99,29.3 -12,42.6 -25.31,89.2 -39.97,142.5 -1.33,6.7 -4,13.4 -5.33,21.3 -19.98,72 -41.3,154.6 -65.28,245.2 -79.93,313 -178.52,732.7 -269.11,1221.6 -18.65,95.9 -35.97,195.8 -53.29,297.1 -10.65,60 -21.31,121.2 -30.64,182.5 -22.65,139.9 -43.96,285.1 -63.95,433 -13.32,87.9 -23.98,177.2 -34.63,267.8 -8,61.3 -14.66,123.9 -21.32,186.5 -14.65,131.9 -27.98,265.1 -39.96,401 -14.66,171.8 -26.65,346.4 -35.98,523.5 -22.64,443.7 -25.31,901.9 1.34,1357.6 10.65,181.1 25.32,362.3 45.29,542.2 34.64,306.4 82.6,608.8 150.54,905.9 1.34,10.7 4,21.3 6.66,32 218.49,960.5 623.49,1851.7 1304.25,2537.8 1440.13,1446.8 3481.08,2330.1 5621.97,2665.8" /><path
         id="path24"
         style="fill:#254975;fill-opacity:1;fill-rule:nonzero;stroke:none"
         d="M 6913.65,6107.6 V 2900.9 H 3765.62 c 0,0 -9.33,28 -25.32,80 -7.99,26.6 -17.32,59.9 -29.3,99.9 -2.67,9.3 -5.34,20 -7.99,29.3 -12,42.6 -25.31,89.2 -39.97,142.5 -1.33,6.7 -4,13.4 -5.33,21.3 -19.98,72 -41.3,154.6 -65.28,245.2 -79.93,313 -178.52,732.7 -269.11,1221.6 -18.65,95.9 -35.97,195.8 -53.29,297.1 -10.65,60 -21.31,121.2 -30.64,182.5 -22.65,139.9 -43.96,285.1 -63.95,433 -13.32,87.9 -23.98,177.2 -34.63,267.8 -8,61.3 -14.66,123.9 -21.32,186.5 h 3794.16" /><path
         id="path26"
         style="fill:#d1a586;fill-opacity:1;fill-rule:nonzero;stroke:none"
         d="m 9005.5,6102.9 c -18.9,458.4 -59.64,857.1 -108.39,1135.2 -77.72,443.3 -147.69,698.3 -148.5,701 -10.23,39 -158.13,196.7 -486.95,191.8 -328.82,-4.8 -297.64,-211.7 -297.64,-211.7 v 0 c -0.04,-7 0.91,-13.5 2.35,-18.4 3.18,-10.6 305.02,-1090.1 291.95,-2484 -0.19,-19.5 -2.42,-53.4 -1.01,-75.9 0.01,-0.1 762.01,-19.4 762.19,0 26.58,121.8 13.62,459.4 -14,762" /><path
         id="path28"
         style="fill:#e5bd9e;fill-opacity:1;fill-rule:nonzero;stroke:none"
         d="m 9101.3,5423.7 c -0.23,-19.4 -10.62,-35 -23.29,-35 h -0.3 c -12.68,0.3 -22.77,15.9 -22.92,35 h -653.04 c -0.23,-19.4 -10.62,-35 -23.29,-35 h -0.31 c -12.9,0.3 -23.15,16.4 -22.99,36 3.8,399 -19.28,771.6 -54.18,1100.4 -86.81,820 -247.3,1368.1 -249.57,1375.7 -1.45,4.9 -2.36,11.4 -2.36,18.4 0,0 -31.19,206.9 297.61,211.7 328.87,4.9 476.77,-152.8 487.01,-191.8 0.61,-2.1 40.22,-146.5 92.88,-406.1 17.45,-86 36.27,-184.6 55.62,-294.9 48.72,-278.1 89.47,-676.9 108.36,-1135.2 27.62,-302.6 37.33,-557.4 10.77,-679.2" /><path
         id="path30"
         style="fill:#dfb697;fill-opacity:1;fill-rule:nonzero;stroke:none"
         d="m 9101.3,5423.7 c -0.23,-19.4 -10.62,-35 -23.29,-35 h -0.3 c -12.68,0.3 -22.77,15.9 -22.92,35 h -653.04 c -0.23,-19.4 -10.62,-35 -23.29,-35 h -0.31 c -12.9,0.3 -23.15,16.4 -22.99,36 3.8,399 -19.28,771.6 -54.18,1100.4 107.98,520.4 525.26,918.5 625.57,1007.9 17.45,-86 36.27,-184.6 55.62,-294.9 48.72,-278.1 89.47,-676.9 108.36,-1135.2 27.62,-302.6 37.33,-557.4 10.77,-679.2" /><path
         id="path32"
         style="fill:#d1a586;fill-opacity:1;fill-rule:nonzero;stroke:none"
         d="m 8411.1,8041.5 c -3.63,0 -7.29,0 -10.99,-0.1 -90.15,-1.3 -153.79,-23.1 -189.13,-64.7 -35.03,-41.2 -28.57,-87.9 -28.5,-88.4 0.02,-5.1 0.6,-9.7 1.63,-13.2 0.9,-3 169.64,-972.9 197.89,-1211.7 43.45,-367.3 61.45,-1090.2 64.15,-1209.8 17.35,17.8 66.19,21.7 142.77,21.7 19.49,0 40.49,-0.2 62.75,-0.5 25.01,-0.2 51.61,-0.5 79.39,-0.5 h 0.02 c 82.74,0 191.63,2.4 300.19,21.1 69.12,12 0.04,702.7 -33.15,1034.6 -8.48,84.8 -15.17,151.7 -18.19,191.1 -32.43,423.5 -219.61,1173.6 -221.45,1180.5 -7.79,29.6 -114.43,139.9 -347.38,139.9 z m 28.12,-2610.6 -0.14,4.1 c -0.02,0.5 -0.02,1.1 0,1.7 -0.23,12.2 -18.21,834.8 -64.48,1225.9 -27.57,233.1 -196.61,1206.3 -197.65,1210.5 -1.23,4.2 -1.9,9.4 -1.88,14.7 -0.27,1.4 -7.05,49.8 30.13,93.6 36.77,43.4 102.31,66.1 194.8,67.5 244.73,3.9 357.45,-114.1 365.67,-145.4 1.74,-5.9 189.42,-760.6 221.68,-1181.8 3.01,-39.4 9.7,-106.3 18.17,-190.9 49.82,-498.1 97.09,-1030.6 27.02,-1042.7 -109.11,-18.9 -218.42,-21.3 -301.46,-21.3 -0.01,0 -0.01,0 -0.02,0 -27.81,0 -54.43,0.3 -79.48,0.6 -22.22,0.2 -43.2,0.5 -62.66,0.5 -87.24,0 -141.5,-5.2 -142.4,-31.3 0.01,-0.3 0.01,-0.7 0,-1.1 l -0.01,-0.3 c -0.09,-2 -0.68,-4.2 -3.62,-4.3 h -3.67" /><path
         id="path34"
         style="fill:#e5bd9e;fill-opacity:1;fill-rule:nonzero;stroke:none"
         d="m 8306.9,5388.7 h 2560.3 c 0,0 -59.7,238 -1542.41,202.5 C 8275.5,5566.2 8306.9,5388.7 8306.9,5388.7" /><path
         id="path36"
         style="fill:#d1a586;fill-opacity:1;fill-rule:nonzero;stroke:none"
         d="m 8098.51,2902.9 c 296.85,1482.3 220.52,2391.9 220.14,2403.4 -0.75,22.8 41.9,43.5 64.84,44.2 23.22,0.4 125.68,6.8 137.54,-12.7 15.53,-25.6 75.31,-1146.3 -367.11,-2434.9 h -55.41" /><path
         id="path38"
         style="fill:#d1a586;fill-opacity:1;fill-rule:nonzero;stroke:none"
         d="m 10489,2902.9 c -296.9,1482.3 -220.5,2391.9 -220.2,2403.4 0.8,22.8 -41.9,43.5 -64.8,44.2 -23.2,0.4 -125.7,6.8 -137.5,-12.7 -15.6,-25.6 -75.34,-1146.3 367.1,-2434.9 h 55.4" /><path
         id="path40"
         style="fill:#a0795f;fill-opacity:1;fill-rule:nonzero;stroke:none"
         d="m 10962.7,2902.9 c -296.8,1482.3 -220.5,2391.9 -220.1,2403.4 0.7,22.8 -41.9,43.5 -64.8,44.2 -23.3,0.4 -125.7,6.8 -137.6,-12.7 -15.5,-25.6 -75.3,-1146.3 367.1,-2434.9 h 55.4" /><path
         id="path42"
         style="fill:#a0795f;fill-opacity:1;fill-rule:nonzero;stroke:none"
         d="m 8575.43,2902.9 c 296.86,1482.3 220.53,2391.9 220.15,2403.4 -0.75,22.8 41.9,43.5 64.84,44.2 23.22,0.4 125.68,6.8 137.53,-12.7 15.54,-25.6 75.32,-1146.3 -367.11,-2434.9 h -55.41" /><path
         id="path44"
         style="fill:#d1a586;fill-opacity:1;fill-rule:nonzero;stroke:none"
         d="M 10869,5312.8 H 8308.06 c -28.66,0 -52.09,23.4 -52.09,52 v 33.3 c 0,28.7 23.43,52.1 52.09,52.1 H 10869 c 28.7,0 52.1,-23.4 52.1,-52.1 v -33.3 c 0,-28.6 -23.4,-52 -52.1,-52" /><path
         id="path46"
         style="fill:#f4a269;fill-opacity:1;fill-rule:nonzero;stroke:none"
         d="m 10340.8,7007.4 c 0,0 468.1,-534.6 563.8,-525.8 97.9,8.9 157.6,39.7 242.8,0 61.2,-28.6 254.7,-184.2 202.7,-173.9 -51.9,10.3 -145.9,22.4 -170.7,24.7 -34.2,3.3 -89,4 -126.2,10.5 -23.6,4.1 -108.6,6.5 -136.9,7.4 -123.2,4.1 -705.9,344.4 -705.9,344.4 l 130.4,312.7" /><path
         id="path48"
         style="fill:#1c468a;fill-opacity:1;fill-rule:nonzero;stroke:none"
         d="m 10016.1,9722 c 0,0 -21.18,268.5 -407.37,198.7 -102.11,-18.4 -172.28,163.7 -339.42,98.8 -359.89,-139.7 -381.05,44.7 -485.07,-214.1 -43.54,-108.4 -320.39,-234.5 -235.84,-421.8 84.55,-187.2 -56.93,-313.2 42.46,-459.9 51.44,-75.9 30.54,-211.6 273.21,-216.5 120.86,-2.4 309.1,-226.3 444.73,-267 135.63,-40.7 542.9,18 527.56,204.1 -11.98,145.2 157.35,133.1 261.34,300 90.9,145.8 -71.3,182.6 15.5,418.4 63.5,172.9 -102.1,215 -97.1,359.3" /><path
         id="path50"
         style="fill:#ffb27d;fill-opacity:1;fill-rule:nonzero;stroke:none"
         d="m 12139.1,3116.9 c -8.3,-89.8 116.7,-111.7 261.5,-118.9 144.8,-7.2 101.1,-36.9 299.5,-72.8 198.5,-36 278,18.3 292.4,45.2 12.8,23.8 -79.5,61 -177.8,103 -12.4,5.3 -24.8,10.7 -37.2,16.1 -110.6,48.7 -172.7,147.9 -259,239.9 -81.8,87.2 -159.3,366.3 -159.3,366.3 l -269.7,57.6 c 0,0 75.7,-251.2 102,-358.5 15.4,-63 -7.4,-133.5 -27.6,-187.2 -10.9,-29.2 -22,-59.1 -24.8,-90.7" /><path
         id="path52"
         style="fill:#c65447;fill-opacity:1;fill-rule:nonzero;stroke:none"
         d="m 12400.6,2998 c 144.8,-7.2 101.1,-36.9 299.5,-72.8 198.5,-36 278,18.3 292.4,45.2 12.8,23.8 -79.5,61 -177.8,103 l -1.6,-1.7 c 0,0 -139.5,-47.3 -300.6,-3.6 -131.2,35.7 -258.2,114.1 -348.6,139.5 -10.9,-29.2 -22,-59.1 -24.8,-90.7 -8.3,-89.8 116.7,-111.7 261.5,-118.9" /><path
         id="path54"
         style="fill:#163560;fill-opacity:1;fill-rule:nonzero;stroke:none"
         d="m 9525.63,6595.8 c 0,0 1719.97,-146 2057.37,-359 337.3,-212.9 878.4,-2693 878.4,-2693 0,0 -33.4,-26.8 -108,-34.9 -69.3,-7.5 -222.1,33.3 -222.1,33.3 0,0 -777.6,1109.7 -832.4,1389.3 -54.8,279.5 -41.4,529 -166.1,535.7 -124.7,6.6 -1679.53,-189.1 -1914.7,225.3 -235.18,414.3 -40.76,824.4 -40.76,824.4 l 348.29,78.9" /><path
         id="path56"
         style="fill:#ffb27d;fill-opacity:1;fill-rule:nonzero;stroke:none"
         d="m 11522.5,3106.8 c -8.3,-89.8 116.7,-111.7 261.5,-118.9 144.8,-7.2 101.1,-36.9 299.5,-72.8 198.5,-35.9 278,18.4 292.4,45.2 12.8,23.8 -79.5,61 -177.8,103 -12.4,5.3 -24.8,10.7 -37.2,16.1 -110.7,48.7 -172.7,147.9 -259,239.9 -81.8,87.2 -159.4,366.3 -159.4,366.3 l -269.6,57.6 c 0,0 75.7,-251.2 102,-358.4 15.4,-63.1 -7.4,-133.6 -27.6,-187.3 -10.9,-29.2 -22,-59.1 -24.8,-90.7" /><path
         id="path58"
         style="fill:#c65447;fill-opacity:1;fill-rule:nonzero;stroke:none"
         d="m 11784,2987.9 c 144.8,-7.2 101.1,-36.9 299.5,-72.8 198.5,-35.9 278,18.4 292.4,45.2 12.8,23.8 -79.5,61 -177.8,103 l -1.6,-1.7 c 0,0 -139.5,-47.3 -300.6,-3.5 -131.3,35.6 -258.2,114.1 -348.6,139.4 -10.9,-29.2 -22,-59.1 -24.8,-90.7 -8.3,-89.8 116.7,-111.7 261.5,-118.9" /><path
         id="path60"
         style="fill:#1c468a;fill-opacity:1;fill-rule:nonzero;stroke:none"
         d="m 9171.65,6481.6 c 0,0 1591.95,-75.4 1920.75,-301.3 328.9,-225.9 773,-2725.2 773,-2725.2 0,0 -34.4,-25.4 -109.2,-30.6 -69.6,-4.8 -220.7,41.9 -220.7,41.9 0,0 -733.8,1139.1 -777.7,1420.6 -43.8,281.5 -20.8,530.2 -145.1,541.8 -124.4,11.5 -1685.64,-123.5 -1904.52,299.6 -218.87,423.2 463.47,753.2 463.47,753.2" /><path
         id="path62"
         style="fill:#ffb27d;fill-opacity:1;fill-rule:nonzero;stroke:none"
         d="m 8695.13,8515.6 c 0.58,0.9 1.31,1.6 2.03,2.5 12.63,14.2 27.72,27.2 44.42,38.9 l 0.58,0.4 c 0,0 0,0 0.14,0 130.04,90.8 362.41,110.3 362.41,110.3 v -0.2 0 c 0.02,0.1 0.02,0.1 0.03,0.2 0,0 25.4,2.4 65.62,4.2 30.47,79 65.15,196 75.91,366.6 l 23.04,-6.1 387.34,-103.9 c 0,0 -17.17,-123 -25.19,-239.3 -1.77,-25.5 -3.08,-50.7 -3.69,-74.2 11.22,-4.1 21.61,-8.1 30.77,-11.9 0,0 0,0 0.01,0 h -0.01 c 0,0 221.48,-26.1 273.87,-82.4 52.39,-56.5 157.19,-431.5 183.59,-498 l -1491.26,-24.4 c 0,0 -37.45,389.7 70.39,517.3" /><path
         id="path64"
         style="fill:#6bb7bf;fill-opacity:1;fill-rule:nonzero;stroke:none"
         d="m 8640.08,5848.3 c 176.54,-16.8 771.61,342.5 969.89,459.4 3.53,2 6.81,4 9.98,5.9 82.58,48.5 198.75,71.4 309.17,89.7 140.68,23 272.08,38.5 314.08,88.8 50.1,59.9 -97.1,126.3 -215.4,195.1 -59.57,34.8 -111.96,70.3 -128.28,105.6 -12.57,27.9 -11.63,88.8 -3.18,166.8 v 0.1 c 1.41,14.6 3.29,29.8 5.41,45.5 9.63,-20 21.61,-40.6 35.47,-61.3 34.77,-52.1 80.58,-104.6 126.38,-147.9 56.2,-53.2 112.1,-92.8 146.8,-101.3 23.4,-5.6 46.9,-2.7 70.2,6.4 61.9,24.2 121.7,92.3 169.1,158 11.2,15.5 21.7,31 31.4,45.7 32.4,49.1 55.4,89.8 64.1,99.4 26.4,29.3 -106.3,87.2 -160.8,130.7 -54.3,43.5 -268.3,887.8 -268.3,887.8 -26.4,66.4 -131.19,441.5 -183.58,498 0,0 -204.38,-249.6 -469.38,-235.3 -263.12,14.1 -713.82,268 -720.75,271.9 -0.12,0 -0.12,0 -0.12,0 l -0.59,-0.3 -46.51,-41.5 c -107.84,-127.5 -70.37,-517.2 -70.37,-517.2 0,0 206.27,-909 206.27,-1000.7 0,-168.2 -139.08,-554.9 -205.44,-833.4 -42.17,-176.5 -55.21,-309.3 14.45,-315.9" /><path
         id="path66"
         style="fill:#f4a269;fill-opacity:1;fill-rule:nonzero;stroke:none"
         d="m 9656.65,8928.5 c 0,0 -17.17,-123 -25.19,-239.3 -219.24,20.8 -321.98,228.9 -362.15,343.2 l 387.34,-103.9" /><path
         id="path68"
         style="fill:#ffb27d;fill-opacity:1;fill-rule:nonzero;stroke:none"
         d="m 9722.65,8813.4 c 0,0 -520.25,26.1 -499.03,349.8 21.23,323.7 -31.63,545.1 301.44,542.2 333.07,-3 389.44,-130.8 408.64,-240.5 19.2,-109.8 -75.17,-650 -211.05,-651.5" /><path
         id="path70"
         style="fill:#1c468a;fill-opacity:1;fill-rule:nonzero;stroke:none"
         d="m 9744.56,9590.1 c 0,0 -124.34,29.1 -164.98,-31.4 -40.63,-60.5 -11.6,-94.4 -102.31,-119.8 -90.71,-25.4 -121.55,-23.5 -112.48,-87 9.07,-63.5 -91.18,-110.7 -95.48,-161.5 -4.31,-50.8 -46.03,-76.2 -85.94,-79.8 -39.91,-3.7 -21.77,654.9 132.44,683.9 154.2,29 302.96,-5.4 348.32,-41.7 45.35,-36.3 80.43,-162.7 80.43,-162.7" /><path
         id="path72"
         style="fill:#1c468a;fill-opacity:1;fill-rule:nonzero;stroke:none"
         d="m 9744.56,9590.1 c 0,0 120.94,8.5 142.72,-60.5 21.76,-68.9 -7.26,-85.2 23.58,-126.9 30.84,-41.8 13,-115.8 13,-115.8 0,0 239.14,440.5 -13,469.5 -252.17,29 -245.52,-22.4 -166.3,-166.3" /><path
         id="path74"
         style="fill:#599dad;fill-opacity:1;fill-rule:nonzero;stroke:none"
         d="m 9896.34,7033.1 v 0.3 c 1.65,24.1 3.88,49.4 6.23,75.5 34.53,-103.8 96.32,-218 161.03,-312.9 56.2,-53.2 112.1,-92.8 146.8,-101.3 23.4,-5.6 46.9,-2.7 70.2,6.4 61.9,24.2 121.7,92.3 169.1,158 11.2,15.5 21.7,31 31.4,45.7 -165.3,132.6 -478.6,436 -511.11,851.2 -44.51,567.1 -73.76,-722.6 -73.76,-722.6 l 0.11,-0.3" /><path
         id="path76"
         style="fill:#599dad;fill-opacity:1;fill-rule:nonzero;stroke:none"
         d="m 10280.6,6701.1 c -57.7,88 -175.1,174.7 -343.38,242.8 77.48,-116.1 210.18,-233.9 273.18,-249.2 23.4,-5.6 46.9,-2.7 70.2,6.4" /><path
         id="path78"
         style="fill:#599dad;fill-opacity:1;fill-rule:nonzero;stroke:none"
         d="m 8905.19,7792.4 c 0,0 -279.56,-1628.2 704.78,-1484.7 3.53,2 6.81,4 9.98,5.9 82.58,48.5 198.75,71.4 309.17,89.7 140.68,23 272.08,38.5 314.08,88.8 50.1,59.9 -97.1,126.3 -215.4,195.1 -59.57,34.8 -203.47,49.5 -219.8,84.8 -12.57,27.8 -120.27,157.4 -111.81,235.4 l -45.48,69.7 c -485.38,379.9 -745.52,715.3 -745.52,715.3" /><path
         id="path80"
         style="fill:#ffb27d;fill-opacity:1;fill-rule:nonzero;stroke:none"
         d="m 9182.92,8135 c 0,0 -237.74,205.9 -349.55,-48.6 -111.81,-254.5 292.21,-1404.3 540.64,-1524.8 135.96,-65.9 1262.19,-204.8 1262.19,-204.8 l 7.6,144.2 c 0,0 -776.69,281 -826.32,316.9 -49.64,35.8 -537.48,1319.9 -634.56,1317.1" /><path
         id="path82"
         style="fill:#ffb27d;fill-opacity:1;fill-rule:nonzero;stroke:none"
         d="m 10643.8,6501 c 0,0 232.3,56.9 318.9,0 86.6,-56.9 189,-197.1 143.5,-193.3 -45.5,3.8 -450.1,1.5 -470,49.1 -19.9,47.5 7.6,144.2 7.6,144.2" /><path
         id="path84"
         style="fill:#6bb7bf;fill-opacity:1;fill-rule:nonzero;stroke:none"
         d="m 8742.27,8557.3 c 0,0 97.78,-1476.2 322.12,-1825.9 224.35,-349.8 646.83,-195.1 646.83,-195.1 0,0 168.79,176.8 139.66,264.8 0,0 -364.49,1413.4 -1108.61,1756.2" /><path
         id="path86"
         style="fill:#6b819e;fill-opacity:1;fill-rule:nonzero;stroke:none"
         d="m 5486.59,6776.3 c -4.18,5.5 -7.69,11 -10.23,16.5 -12.57,27.9 -11.63,88.8 -3.18,166.8 v 0.1 c 1.41,14.6 3.29,29.8 5.41,45.5 9.63,-20 21.61,-40.6 35.47,-61.3 4,-6 8.17,-12 12.43,-18 0.59,-0.8 1.15,-1.6 1.74,-2.4 3.98,-5.5 8.08,-11 12.27,-16.5 0.99,-1.3 1.99,-2.6 2.99,-3.9 3.95,-5.2 7.97,-10.2 12.08,-15.3 1.39,-1.7 2.79,-3.5 4.21,-5.2 3.88,-4.7 7.79,-9.4 11.78,-14.1 1.74,-2 3.5,-4 5.26,-6 2.84,-3.3 5.69,-6.5 8.57,-9.7 2.87,-3.2 5.74,-6.4 8.64,-9.6 2.67,-2.9 5.35,-5.8 8.05,-8.6 2.3,-2.5 4.58,-4.9 6.88,-7.3 3.71,-3.8 7.42,-7.6 11.15,-11.4 1.92,-1.9 3.83,-3.8 5.75,-5.7 4.38,-4.4 8.77,-8.6 13.16,-12.8 0.48,-0.5 0.96,-1 1.43,-1.4 1.07,-1 2.13,-2 3.2,-3 1.74,-1.6 3.46,-3.2 5.2,-4.8 1.44,-1.4 2.89,-2.7 4.34,-4 2.1,-1.9 4.21,-3.8 6.31,-5.7 1.12,-1 2.24,-2 3.37,-3 2.49,-2.2 4.98,-4.4 7.46,-6.5 0.76,-0.7 1.53,-1.4 2.29,-2 3.03,-2.6 6.04,-5.1 9.04,-7.6 0.23,-0.2 0.46,-0.4 0.7,-0.6 17.04,-14.1 33.53,-26.5 48.87,-36.5 0.03,-0.1 0.06,-0.1 0.09,-0.1 2.94,-1.9 5.82,-3.8 8.67,-5.5 0.3,-0.2 0.6,-0.4 0.9,-0.6 2.57,-1.5 5.1,-3 7.59,-4.5 0.44,-0.2 0.88,-0.5 1.31,-0.7 2.33,-1.3 4.62,-2.6 6.88,-3.8 0.51,-0.2 1.03,-0.5 1.53,-0.8 2.15,-1.1 4.26,-2.1 6.33,-3.1 0.54,-0.3 1.09,-0.5 1.62,-0.8 2.01,-0.9 3.98,-1.7 5.91,-2.5 0.53,-0.3 1.08,-0.5 1.61,-0.7 1.95,-0.8 3.84,-1.5 5.7,-2.1 0.44,-0.1 0.9,-0.3 1.34,-0.5 2.26,-0.7 4.46,-1.4 6.58,-1.9 0,0 74.35,-43.4 175.54,-99.4 -161.85,59.7 -361,134.2 -476.24,181 z M 7715.9,3116.9 c -0.94,-10.3 -0.07,-19.6 2.27,-28.1 -98.68,51.3 -158.4,144.1 -239.46,230.5 -24.83,26.5 -49.26,70.7 -71.27,119.4 23.56,8.1 34.83,16.4 34.83,16.4 0,0 -51.52,289.9 -132.43,681 202.19,-314 398.31,-593.9 398.31,-593.9 0,0 8.24,-2.2 21.66,-5.5 15.25,-53.5 29.68,-105.8 38.51,-141.9 15.46,-63 -7.35,-133.5 -27.6,-187.2 -10.92,-29.2 -21.94,-59.1 -24.82,-90.7 z m 675.62,-43.5 c -12.37,5.3 -24.77,10.7 -37.16,16.1 -110.66,48.7 -172.76,147.9 -259.04,239.9 -37.04,39.5 -73.2,118.4 -101.7,192.9 30.41,10.2 44.65,21.5 44.65,21.5 0,0 -541.09,2480.1 -878.47,2693 -50.71,32 -132.71,62.5 -235.38,91.2 -36.95,41.5 -154.83,132.4 -200.17,153.6 -62.41,29.1 -111.21,20.3 -171.33,10 -4.47,3.3 -8.93,6.5 -13.35,9.4 -33.53,22 -88.93,26.9 -144.22,24.8 -100.22,76.1 -252.31,234.4 -357.86,348.8 7.12,10.3 14.03,20.4 20.43,30.2 32.42,49.1 55.44,89.8 64.13,99.5 26.43,29.2 -106.3,87.1 -160.8,130.6 -54.27,43.5 -268.29,887.8 -268.29,887.8 -26.43,66.4 -131.21,441.5 -183.59,498 0,0 -0.07,-0.1 -0.08,-0.1 -0.01,0 -0.03,0.1 -0.04,0.1 -20.14,21.6 -65.29,38.8 -113.23,51.7 12.95,21.5 19.37,45.4 17.18,71.9 -11.97,145.2 157.35,133.1 261.36,300 90.91,145.8 -71.31,182.6 15.44,418.4 63.57,172.9 -102.05,215 -97.08,359.3 0,0 -21.16,268.5 -407.35,198.7 -102.1,-18.4 -172.28,163.7 -339.42,98.8 -359.89,-139.7 -381.05,44.7 -485.07,-214.1 -43.53,-108.4 -320.39,-234.5 -235.84,-421.8 84.55,-187.2 -56.92,-313.2 42.47,-459.9 51.43,-75.9 30.53,-211.6 273.2,-216.5 38.19,-0.7 83.11,-23.7 130.97,-55.9 -77.87,-15.3 -180.89,-43.7 -252.74,-93.9 -0.14,0 -0.14,0 -0.14,0 l -0.58,-0.4 c -16.7,-11.7 -31.78,-24.7 -44.42,-38.9 -0.72,-0.9 -1.45,-1.6 -2.03,-2.5 -74.44,-88.1 -79.65,-301 -75.73,-424.5 -71.44,24.6 -161.74,41.5 -272.74,39.8 -8.97,-0.1 -17.57,-0.4 -26.02,-0.9 -18.98,0.9 -38.63,1.2 -58.98,0.9 -328.82,-4.8 -297.64,-211.7 -297.64,-211.7 -0.03,-7 0.91,-13.5 2.35,-18.4 3.18,-10.6 305.02,-1090.1 291.95,-2484 -0.02,-1.3 -0.06,-2.9 -0.09,-4.4 -1.32,-4.5 -2.26,-9.3 -2.26,-14.3 v -33.3 c 0,-3.1 0.39,-6 0.92,-9 0.03,-5.3 0.14,-10.3 0.43,-14.9 0,0 1.67,0 4.84,-0.1 8.75,-16.6 25.96,-28 45.9,-28 h 11.53 v -0.1 c -0.69,-2.1 -1.03,-4.3 -0.92,-6.4 0.34,-11.1 70.5,-847.3 -185.23,-2222.2 0.35,-1.3 0.8,-2.7 1.14,-3.9 15.24,-53.2 27.86,-95.4 36.84,-125.4 390.25,1167.7 371.14,2186.1 353.75,2357.9 v 0.1 h 271.45 c -0.67,-2.2 -1.11,-4.3 -1.04,-6.5 0.38,-11.5 76.71,-921.1 -220.14,-2403.4 h 55.41 c 408.36,1189.4 388.87,2235.7 371.23,2409.9 h 1060.26 c -17.63,-174.2 -37.13,-1220.5 371.24,-2409.9 h 55.41 c -296.85,1482.3 -220.52,2391.9 -220.14,2403.4 0.07,2.2 -0.37,4.3 -1.04,6.5 h 268.27 c -17.63,-174.2 -37.13,-1220.5 371.24,-2409.9 h 55.41 c -212.81,1062.7 -233.83,1830.9 -228.53,2185 5.93,-62.8 12.7,-130.8 23.61,-200.9 43.85,-281.5 777.69,-1420.6 777.69,-1420.6 0,0 7.27,-2.3 19.36,-5.7 7.92,-28.8 14.91,-55.1 20.01,-75.9 15.47,-63.1 -7.35,-133.6 -27.6,-187.3 -10.92,-29.2 -21.93,-59.1 -24.81,-90.7 -8.28,-89.8 116.75,-111.7 261.56,-118.9 144.81,-7.2 101.05,-36.9 299.51,-72.8 198.45,-35.9 277.98,18.4 292.34,45.2 6.15,11.4 -11.96,25.9 -43.3,42.6 21.86,-2.2 44.7,-3.7 68.06,-4.9 144.81,-7.2 101.05,-36.9 299.5,-72.8 198.45,-36 277.99,18.3 292.35,45.2 12.8,23.8 -79.47,61 -177.8,103" /><g
         transform="scale(1.53397)"
         id="g88"><path
           id="path90"
           style="fill:#d3e3ef;fill-opacity:1;fill-rule:nonzero;stroke:none"
           d="M 16300,4396.96 H 9792.96 V 8869.7 H 16300 V 4396.96" /></g><g
         transform="scale(1.06137)"
         id="g92"><path
           id="path94"
           style="fill:#5c96e3;fill-opacity:1;fill-rule:nonzero;stroke:none"
           d="m 15647.3,11249.1 c -227.2,-221.4 -808.8,-881.5 -708.3,-1752.62 0,0 -8.3,-630.38 522.6,-547.46 530.9,82.91 779.7,257.12 754.8,489.39 -24.8,232.26 -24.8,804.59 -107.8,970.49 -72.6,145.2 191.4,830.2 -174.9,921.3 -102.5,25.6 -210.8,-7.3 -286.4,-81.1" /></g><g
         transform="scale(1.15702)"
         id="g96"><path
           id="path98"
           style="fill:#5c96e3;fill-opacity:1;fill-rule:nonzero;stroke:none"
           d="m 16207.8,8711.36 c 0,0 7.7,-578.34 -479.4,-502.2 -33.3,5.27 -65.5,10.8 -96.4,16.77 -420.7,81.5 -617.3,233.79 -596,432.13 16.7,155.23 21.1,475.84 51.7,697.38 h 0.1 c 11.4,82.63 26.5,151.57 47.1,192.89 66.6,133.23 -175.6,761.57 160.5,845.17 94,23.4 193.3,-6.8 262.7,-74.4 208.4,-203.1 741.9,-808.56 649.7,-1607.74" /></g><g
         transform="scale(1.0891)"
         id="g100"><path
           id="path102"
           style="fill:#5c96e3;fill-opacity:1;fill-rule:nonzero;stroke:none"
           d="m 16300,10310.2 -312.6,468.6 v 773.1 c 0,44.8 -32,84.8 -76.3,90.7 -53.7,7.1 -99.9,-35 -99.9,-87.4 v -770.5 l -291.9,-474.5 234.7,-414.17 113.4,430.17 c 14.7,38.9 69.7,38.9 84.4,0 l 67.8,-460.92 280.4,444.92" /></g><g
         transform="scale(1.10961)"
         id="g104"><path
           id="path106"
           style="fill:#4584c9;fill-opacity:1;fill-rule:nonzero;stroke:none"
           d="m 16300,8581.14 c -438.7,84.9 -643.7,243.69 -621.5,450.55 17.4,161.86 2,496.17 33.9,727.18 v 0 c 0,0 30.7,-221.63 253.2,-560.56 181.6,-276.42 165.2,-506.77 334.4,-617.17" /></g><g
         transform="scale(1.05783)"
         id="g108"><path
           id="path110"
           style="fill:#4584c9;fill-opacity:1;fill-rule:nonzero;stroke:none"
           d="m 15624.9,9001.18 c 460.1,89.05 675.1,255.62 651.9,472.6 -18.2,169.78 -23.1,520.45 -56.5,762.72 h -0.2 c 0,0 13.5,-238.39 -244.5,-587.95 -206,-278.97 -173.3,-531.57 -350.7,-647.37" /></g><g
         transform="scale(1.32163)"
         id="g112"><path
           id="path114"
           style="fill:#4080c6;fill-opacity:1;fill-rule:nonzero;stroke:none"
           d="m 14301.6,9380.87 h -99.9 v 9.99 h 99.9 z m 199.9,0 h -100 v 9.99 h 100 z m 199.8,0 h -100 v 9.99 h 100 z m 199.8,0 h -99.9 v 9.99 h 99.9 z m 199.9,0 h -99.9 v 9.99 h 99.9 z m 199.9,0 h -100 v 9.99 h 100 z m 199.8,0 h -100 v 9.99 h 100 z m 199.8,0 h -99.9 v 9.99 h 99.9 z m 199.8,0 h -99.9 v 9.99 h 99.9 z m 199.9,0 h -99.9 v 9.99 h 99.9 z m 199.8,0 h -99.9 v 9.99 h 99.9 z m -2238.3,-134.6 -7,7.07 70.6,70.66 7.1,-7.07 z m -141.3,-141.31 -7.1,7.06 70.7,70.66 7,-7.06 z m -141.3,-141.31 -7,7.07 70.6,70.66 7.1,-7.07 z m -141.3,-141.31 -7.1,7.07 70.7,70.65 7,-7.06 -70.6,-70.66" /></g><g
         transform="scale(1.33915)"
         id="g116"><path
           id="path118"
           style="fill:#4080c6;fill-opacity:1;fill-rule:nonzero;stroke:none"
           d="m 14327.7,8570.99 h -98.6 v 9.87 h 98.6 z m 197.2,0 h -98.6 v 9.87 h 98.6 z m 197.3,0 h -98.6 v 9.87 h 98.6 z m 197.2,0 h -98.6 v 9.87 h 98.6 z m 197.2,0 h -98.6 v 9.87 h 98.6 z m 197.2,0 h -98.6 v 9.87 h 98.6 z m 197.3,0 h -98.6 v 9.87 h 98.6 z m 197.2,0 h -98.6 v 9.87 h 98.6 z m 197.3,0 h -98.7 v 9.87 h 98.7 z m 197.2,0 h -98.7 v 9.87 h 98.7 z m 197.2,0 h -98.6 v 9.87 h 98.6 z m -2209,-132.83 -7,6.97 69.7,69.73 7,-6.97 z m -139.5,-139.47 -7,6.98 69.8,69.73 6.9,-6.97 z m -139.4,-139.45 -7,6.96 69.7,69.73 6.9,-6.97 z m -139.5,-139.47 -7,6.97 69.8,69.73 6.9,-6.97 -69.7,-69.73" /></g><g
         transform="scale(1.21347)"
         id="g120"><path
           id="path122"
           style="fill:#4080c6;fill-opacity:1;fill-rule:nonzero;stroke:none"
           d="m 13469.8,7868.82 -77,76.97 7.8,7.67 76.8,-76.97 z m 153.9,-153.93 -77,76.96 7.7,7.75 77,-76.97 z m 153.9,-153.86 -77,76.97 7.7,7.66 77,-76.97 z m 153.9,-153.94 -77,76.97 7.7,7.66 77,-76.88 z m 192,-72.77 h -108.8 v 10.88 h 108.8 z m 217.7,0 h -108.9 v 10.88 h 108.9 z m 217.6,0 h -108.9 v 10.88 h 108.9 z m 217.6,0 h -108.7 v 10.88 h 108.7 z m 217.7,0 h -108.8 v 10.88 h 108.8 z m 217.7,0 h -108.9 v 10.88 h 108.9 z m 217.6,0 h -108.8 v 10.88 h 108.8 z m 217.7,0 h -108.9 v 10.88 h 108.9 z m 217.6,0 h -108.8 v 10.88 h 108.8 z m 217.7,0 h -108.8 v 10.88 h 108.8 z m 217.6,0 h -108.8 v 10.88 h 108.8 v -10.88" /></g><g
         transform="scale(1.33932)"
         id="g124"><path
           id="path126"
           style="fill:#4080c6;fill-opacity:1;fill-rule:nonzero;stroke:none"
           d="m 13766,7459.54 h -98.7 v 9.89 h 98.7 z m 197.1,0 h -98.5 v 9.89 h 98.5 z m 197.2,0 h -98.5 v 9.89 h 98.5 z m 197.3,0 h -98.6 v 9.89 h 98.6 z m 197.2,0 h -98.6 v 9.89 h 98.6 z m 197.2,0 h -98.7 v 9.89 h 98.7 z m 197.2,0 h -98.6 v 9.89 h 98.6 z m 197.2,0 h -98.6 v 9.89 h 98.6 z m 197.2,0 h -98.6 v 9.89 h 98.6 z m 197.2,0 h -98.6 v 9.89 h 98.6 z m 197.2,0 h -98.6 v 9.89 h 98.6 z m 197.2,0 h -98.6 v 9.89 h 98.6 z m 197.2,0 h -98.6 v 9.89 h 98.6 z m 167.6,0 h -69 v 9.89 h 69 v -9.89" /></g><g
         transform="scale(1.48357)"
         id="g128"><path
           id="path130"
           style="fill:#afcceb;fill-opacity:1;fill-rule:nonzero;stroke:none"
           d="m 14899.5,8385.7 h 1364.9 c 19.6,0 35.6,16.02 35.6,35.61 0,19.58 -16,35.61 -35.6,35.61 h -1364.9 c -19.5,0 -35.6,-16.03 -35.6,-35.61 0,-19.59 16.1,-35.61 35.6,-35.61" /></g><g
         transform="scale(1.48357)"
         id="g132"><path
           id="path134"
           style="fill:#afcceb;fill-opacity:1;fill-rule:nonzero;stroke:none"
           d="m 16264.4,8308.55 h -1364.9 c -19.5,0 -35.6,-16.02 -35.6,-35.6 v 0 c 0,-19.58 16.1,-35.61 35.6,-35.61 h 1364.9 c 19.6,0 35.6,16.03 35.6,35.61 v 0 c 0,19.58 -16,35.6 -35.6,35.6" /></g><g
         transform="scale(1.48357)"
         id="g136"><path
           id="path138"
           style="fill:#afcceb;fill-opacity:1;fill-rule:nonzero;stroke:none"
           d="m 14899.5,7779.64 h 1364.9 c 19.6,0 35.6,16.03 35.6,35.61 0,19.59 -16,35.6 -35.6,35.6 h -1364.9 c -19.5,0 -35.6,-16.01 -35.6,-35.6 0,-19.58 16.1,-35.61 35.6,-35.61" /></g><g
         transform="scale(1.48357)"
         id="g140"><path
           id="path142"
           style="fill:#afcceb;fill-opacity:1;fill-rule:nonzero;stroke:none"
           d="m 16264.4,7702.5 h -1364.9 c -19.5,0 -35.6,-16.02 -35.6,-35.61 0,-19.58 16.1,-35.6 35.6,-35.6 h 1364.9 c 19.6,0 35.6,16.02 35.6,35.6 0,19.59 -16,35.61 -35.6,35.61" /></g><g
         transform="scale(1.21365)"
         id="g144"><path
           id="path146"
           style="fill:#afcceb;fill-opacity:1;fill-rule:nonzero;stroke:none"
           d="M 16256.4,7188.48 H 14588 c -23.9,0 -43.5,-19.53 -43.5,-43.51 v 0 c 0,-23.89 19.6,-43.5 43.5,-43.5 h 1668.4 c 24,0 43.6,19.61 43.6,43.5 v 0 c 0,23.98 -19.6,43.51 -43.6,43.51" /></g><g
         transform="scale(1.21365)"
         id="g148"><path
           id="path150"
           style="fill:#afcceb;fill-opacity:1;fill-rule:nonzero;stroke:none"
           d="M 16256.4,7007.12 H 14588 c -23.9,0 -43.5,-19.52 -43.5,-43.5 0,-23.89 19.6,-43.5 43.5,-43.5 h 1668.4 c 24,0 43.6,19.61 43.6,43.5 0,23.98 -19.6,43.5 -43.6,43.5" /></g><g
         transform="scale(1.33932)"
         id="g152"><path
           id="path154"
           style="fill:#afcceb;fill-opacity:1;fill-rule:nonzero;stroke:none"
           d="m 14748.7,7204.63 h 1511.9 c 21.7,0 39.4,17.77 39.4,39.43 0,21.72 -17.7,39.49 -39.4,39.49 h -1511.9 c -21.7,0 -39.4,-17.77 -39.4,-39.49 0,-21.66 17.7,-39.43 39.4,-39.43" /></g><g
         transform="scale(1.33932)"
         id="g156"><path
           id="path158"
           style="fill:#afcceb;fill-opacity:1;fill-rule:nonzero;stroke:none"
           d="m 16260.6,7119.22 h -1511.9 c -21.7,0 -39.4,-17.77 -39.4,-39.5 v 0 c 0,-21.66 17.7,-39.43 39.4,-39.43 h 1511.9 c 21.7,0 39.4,17.77 39.4,39.43 v 0 c 0,21.73 -17.7,39.5 -39.4,39.5" /></g><g
         transform="scale(1.0522)"
         id="g160"><path
           id="path162"
           style="fill:#afcceb;fill-opacity:1;fill-rule:nonzero;stroke:none"
           d="m 16205.2,12646.3 h -1429.4 c -52.2,0 -94.9,-42.7 -94.9,-94.8 0,-52.2 42.7,-94.8 94.9,-94.8 h 1429.4 c 52.1,0 94.8,42.6 94.8,94.8 0,52.1 -42.7,94.8 -94.8,94.8" /></g><g
         transform="scale(1.17526)"
         id="g164"><path
           id="path166"
           style="fill:#afcceb;fill-opacity:1;fill-rule:nonzero;stroke:none"
           d="m 16215.2,11322.2 h -1279.8 c -46.8,0 -84.9,-38.2 -84.9,-84.9 0,-46.7 38.1,-84.9 84.9,-84.9 h 1279.8 c 46.6,0 84.8,38.2 84.8,84.9 0,46.7 -38.2,84.9 -84.8,84.9" /></g><g
         transform="scale(1.38545)"
         id="g168"><path
           id="path170"
           style="fill:#afcceb;fill-opacity:1;fill-rule:nonzero;stroke:none"
           d="m 16242.8,5597.88 h -4899.4 c -31.4,0 -57.1,-25.77 -57.1,-57.24 0,-31.47 25.7,-57.17 57.1,-57.17 h 4899.4 c 31.5,0 57.2,25.7 57.2,57.17 0,31.47 -25.7,57.24 -57.2,57.24" /></g><g
         transform="scale(1.26258)"
         id="g172"><path
           id="path174"
           style="fill:#afcceb;fill-opacity:1;fill-rule:nonzero;stroke:none"
           d="m 16247.1,5909 h -3809.6 c -29,0 -52.9,-23.84 -52.9,-52.91 v -19.64 c 0,-29.15 23.9,-52.91 52.9,-52.91 h 3809.6 c 29.1,0 52.9,23.76 52.9,52.91 v 19.64 c 0,29.07 -23.8,52.91 -52.9,52.91" /></g><g
         transform="scale(1.36409)"
         id="g176"><path
           id="path178"
           style="fill:#f9c29d;fill-opacity:1;fill-rule:nonzero;stroke:none"
           d="m 16162.4,5560.21 c 0,0 -12.5,3.66 -34.3,-3.16 -20.7,-1.39 -45.2,-1.68 -57.1,2.79 -22.6,8.58 -41.7,-12.76 -27.4,-30.72 4.7,-6.01 11,-10.63 18.4,-14 -34.7,-32.33 -76.6,-86.8 -122.4,-178.58 0,0 -38.3,-69.35 42.9,-47.94 54.4,14.36 66,41.49 142.2,62.9 76.3,21.47 136.4,76.38 142.8,134.52 l 32.5,57.47 -80.1,79.62 -57.5,-62.9" /></g><g
         transform="scale(1.41998)"
         id="g180"><path
           id="path182"
           style="fill:#91cecf;fill-opacity:1;fill-rule:nonzero;stroke:none"
           d="m 15693.2,7471.38 c 0,0 606.8,-320.11 533,-1246.98 -19.9,-250.21 -584.1,-982.12 -584.1,-982.12 0,0 -106.5,49.85 -105.9,128.09 0,0 274.3,791.64 333.2,843.33 52.3,45.84 -249.7,750.22 -265.1,943.55 -15.4,193.32 88.9,314.13 88.9,314.13" /></g><g
         transform="scale(1.46537)"
         id="g184"><path
           id="path186"
           style="fill:#233862;fill-opacity:1;fill-rule:nonzero;stroke:none"
           d="m 16197.4,2456.58 c 0,0 102.6,-93.56 82.6,-160.02 -20,-66.47 -112.5,-110.83 -125.1,-192.11 -12.5,-81.2 -62.5,-125.56 -107.5,-125.56 -45,0 -214.6,0 -214.6,0 0,0 -33.1,57.19 46.9,74.45 80,17.2 110.2,112.74 105.2,201.38 -5,88.58 7.5,206.78 7.5,206.78 l 170,39.44 35,-44.36" /></g><g
         transform="scale(1.45615)"
         id="g188"><path
           id="path190"
           style="fill:#b5453c;fill-opacity:1;fill-rule:nonzero;stroke:none"
           d="m 16300,2531.19 c -18.9,-55.76 -226.6,-137.55 -226.6,-137.55 0,0 -113.1,178.41 -475.6,817.77 -31.2,55.07 -63.8,115.51 -97.3,179.85 -355.9,683.65 -816.1,1819.73 -816.1,1819.73 l 879.6,245.3 c 0,0 41.4,-353.05 49,-531.46 4.6,-109.06 66.5,-342 145.4,-545.48 50,-129.45 107,-247.02 160.3,-313.09 242.6,-300.93 381.3,-1535.07 381.3,-1535.07" /></g><g
         transform="scale(1.40777)"
         id="g192"><path
           id="path194"
           style="fill:#93312c;fill-opacity:1;fill-rule:nonzero;stroke:none"
           d="m 16300,4529.87 c -57.3,-290.04 -162.2,-775.77 -266.7,-1022.05 -368.1,707.15 -844.2,1882.28 -844.2,1882.28 l 909.8,253.73 c 0,0 42.8,-365.19 50.7,-549.73 4.8,-112.81 68.9,-353.76 150.4,-564.23" /></g><g
         transform="scale(1.34472)"
         id="g196"><path
           id="path198"
           style="fill:#233862;fill-opacity:1;fill-rule:nonzero;stroke:none"
           d="m 16280,2413.28 c 0,0 20,-232.02 -29,-256.18 l -627.8,1.26 c 0,0 0,72.43 100.8,88.57 100.9,16.06 278,75.11 308,206.59 30,131.47 248,-40.24 248,-40.24" /></g><g
         transform="scale(1.37567)"
         id="g200"><path
           id="path202"
           style="fill:#b5453c;fill-opacity:1;fill-rule:nonzero;stroke:none"
           d="m 15395.7,5563.11 c 0,0 32.4,-397.62 70.4,-875.57 51.7,-649.21 113.9,-1446.72 120,-1597.77 10.7,-262.34 53.3,-682 53.3,-682 0,0 101.2,-99.66 303.7,-57.64 0,0 180.4,599.05 231.9,1232.85 0.8,10.4 1.6,20.87 2.4,31.34 48,645.21 122.6,2003.82 122.6,2003.82 l -904.3,-55.03" /></g><g
         transform="scale(1.37096)"
         id="g204"><path
           id="path206"
           style="fill:#ffb27d;fill-opacity:1;fill-rule:nonzero;stroke:none"
           d="m 16300,7761.53 c 0,0 -365.4,-240.36 -593.7,-169.45 0,0 63.4,96.15 123.9,172.9 -8,45.84 -14.1,85.62 -17.6,119.34 -9.7,77.83 -9.7,121.93 -9.7,121.93 l 152.8,120.18 144.9,115.02 c -11.4,-323.4 199.4,-479.92 199.4,-479.92" /></g><g
         transform="scale(1.41626)"
         id="g208"><path
           id="path210"
           style="fill:#abddda;fill-opacity:1;fill-rule:nonzero;stroke:none"
           d="m 16277.8,4672.81 c -449.5,-303.48 -1357.9,-216.77 -1364.8,-210.98 -15.1,193.12 -23.6,511.7 -28.3,806.56 -2,122.93 -3.4,241.63 -4.1,345.49 -1.8,205.61 -1.7,352.62 -1.5,357.28 0,0 0.3,11.09 0.8,29.87 1.4,59.45 5.1,195.87 9,297.54 0.7,19 1.4,36.79 2.2,52.61 0,0.84 0,1.62 0.1,2.54 2.8,45.68 30.7,167.69 70,309.97 0.3,0.92 0.5,1.7 0.8,2.61 57.5,207.94 139,457.93 201.6,574.43 32.3,59.98 140.7,233.8 140.7,233.8 76.5,-15.1 131.7,7.47 212.4,46.81 88.4,42.71 183.6,88.72 199,76.99 115.6,-84.54 193.8,-274.5 235.5,-517.29 23.7,-139.79 348.8,-2393.12 326.6,-2408.23" /></g><g
         transform="scale(1.35441)"
         id="g212"><path
           id="path214"
           style="fill:#ed985f;fill-opacity:1;fill-rule:nonzero;stroke:none"
           d="m 16300,8216.96 c 0,0 -101.4,-184.69 -294.2,-236.32 -9.8,78.78 -9.8,123.41 -9.8,123.41 l 154.6,121.66 149.4,-8.75" /></g><g
         transform="scale(1.36715)"
         id="g216"><path
           id="path218"
           style="fill:#ffb27d;fill-opacity:1;fill-rule:nonzero;stroke:none"
           d="m 15777.1,8033.84 c 0,0 378.9,-61.98 414.4,170.95 35.6,232.92 108.5,381.78 -131.9,431.21 -240.5,49.42 -301.1,-32.49 -332.2,-107.39 -31.1,-74.9 -48,-472.64 49.7,-494.77" /></g><g
         transform="scale(1.37244)"
         id="g220"><path
           id="path222"
           style="fill:#2c3a64;fill-opacity:1;fill-rule:nonzero;stroke:none"
           d="m 16266.3,8630.46 c 3.4,3.93 11.3,7.1 28.9,8.06 0,0 -14.1,8.78 -32.9,9.25 -3.7,24.46 -16.7,67.74 -58.8,78.26 0,0 22.7,-12.06 25.6,-38.05 -48.7,50.06 -153.2,86.51 -442.4,63.67 -381.2,-30.09 -255.6,-274.16 -206.2,-303.26 49.3,-29.09 173.5,50.68 265.5,43.38 91.9,-7.3 109.4,-140.17 140.6,-158.4 31.2,-18.23 19,14.01 61.1,33.09 42.2,19.08 46.2,-50.86 34.1,-96.33 -12.3,-45.47 45.7,-105.45 45.7,-105.45 0,0 0,0 58.7,63.12 58.6,63.1 113.8,330.42 87.1,387.4 -2.3,5.03 -4.6,10.13 -7,15.26" /></g><g
         transform="scale(1.37031)"
         id="g224"><path
           id="path226"
           style="fill:#91cecf;fill-opacity:1;fill-rule:nonzero;stroke:none"
           d="m 15379.5,5802.13 c -1.8,212.51 -1.7,364.45 -1.4,369.26 0,0 0.3,11.46 0.8,30.87 1.5,61.45 5.2,202.44 9.3,307.53 0.7,19.62 1.4,38.01 2.2,54.36 0.1,0.88 0.1,1.68 0.2,2.63 2.9,47.21 31.7,173.32 72.3,320.36 0.3,0.95 0.5,1.76 0.8,2.7 344.8,377.8 735.2,584.9 735.2,584.9 0,0 101.1,-1313.57 -819.4,-1672.61" /></g><g
         transform="scale(1.36557)"
         id="g228"><path
           id="path230"
           style="fill:#6bb7bf;fill-opacity:1;fill-rule:nonzero;stroke:none"
           d="m 16300,7880.4 c 0,0 -35.3,102.43 -64,113.99 0,0 -399.2,-92.11 -532.3,-533.29 0,0 155.3,270.72 596.3,419.3" /></g><g
         transform="scale(1.19548)"
         id="g232"><path
           id="path234"
           style="fill:#2c3a64;fill-opacity:1;fill-rule:nonzero;stroke:none"
           d="m 16290.5,7439.03 -26.7,-6.28 c -5.8,-1.33 -11.6,2.35 -12.9,8.2 l -397.1,1812.27 c -1.2,5.76 2.4,11.46 8,12.79 l 0.3,0.05 c 5.8,1.34 11.5,-2.25 12.9,-8.03 l 423.6,-1806.12 c 1.4,-5.77 -2.2,-11.54 -8.1,-12.88" /></g><g
         transform="scale(1.18948)"
         id="g236"><path
           id="path238"
           style="fill:#f9c29d;fill-opacity:1;fill-rule:nonzero;stroke:none"
           d="m 16300,8005.53 c 0,0 -96.1,159.06 -139.8,172.42 -43.7,13.29 -58.6,-75.32 -49.8,-131.48 9.9,-63.05 31.4,-125.44 74.8,-143.34 43.6,-17.99 82.9,-23.96 82.9,-23.96 l 31.9,126.36" /></g><g
         transform="scale(1.19036)"
         id="g240"><path
           id="path242"
           style="fill:#f9c29d;fill-opacity:1;fill-rule:nonzero;stroke:none"
           d="m 16300,8003.24 c 0,0 -9.7,55.95 -23.9,64.77 -14.4,8.82 -70.1,24.53 -84.1,22.51 -13.9,-1.93 59.3,-103.33 79.4,-105.18 20.1,-1.76 28.6,17.9 28.6,17.9" /></g><g
         transform="scale(1.37072)"
         id="g244"><path
           id="path246"
           style="fill:#abddda;fill-opacity:1;fill-rule:nonzero;stroke:none"
           d="m 16300,7445.09 c 0,0 -132.1,-698.29 -1072.3,-907.59 -253.8,-56.54 -1150.4,279.04 -1150.4,279.04 0,0 16.9,120.67 94.6,143.94 0,0 867.4,-30.42 936.5,-73.02 61.4,-37.79 666.8,475.88 853.5,549.99 186.7,74.11 338.1,7.64 338.1,7.64" /></g><path
         id="path248"
         style="fill:#ffb27d;fill-opacity:1;fill-rule:nonzero;stroke:none"
         d="m 6785.24,3812 c -21.31,-24.5 -24.03,-51.8 -13.48,-80.9 0.01,-0.1 0.08,-0.3 0.21,-0.4 19.51,-53.9 83.96,-114.1 158.83,-174.2 9.56,-7.8 18.07,-14.8 25.48,-21.3 1.95,-1.7 3.9,-3.4 5.73,-5.1 1.5,-1.3 2.96,-2.7 4.4,-4 69.82,-64.4 43.54,-79.1 168.96,-209.7 143.01,-148.8 241.48,-151.5 269.48,-137.9 23.7,11.6 -24.44,90.5 -77.79,179.2 -2.59,4.2 -5.12,8.6 -7.77,12.9 -7.11,11.8 -14.17,23.8 -21.22,35.6 -62.52,106.8 -46.46,156.9 -31.64,315.7 12.04,129.1 200.85,721.3 200.85,721.3 l -274.07,47.2 c 0,0 -82.53,-471.5 -173.46,-544.1 -48.63,-38.7 -103.06,-39.2 -149.8,-67.9 -3.3,-2 -6.54,-4.1 -9.72,-6.2 -26.56,-17.6 -53.61,-35.7 -74.99,-60.2" /><path
         id="path250"
         style="fill:#c65447;fill-opacity:1;fill-rule:nonzero;stroke:none"
         d="m 6785.24,3812 c -21.31,-24.5 -24.03,-51.8 -13.48,-80.9 0.01,-0.1 0.08,-0.3 0.21,-0.4 23.89,-53.9 86.72,-113.8 159.08,-173.7 9.46,-7.8 17.8,-15 25.23,-21.8 1.95,-1.7 3.9,-3.4 5.73,-5.1 1.5,-1.3 2.96,-2.7 4.4,-4 69.82,-64.4 43.54,-79.1 168.96,-209.7 143.01,-148.8 241.48,-151.5 269.48,-137.9 23.7,11.6 -24.44,90.5 -77.79,179.2 -27.85,10.2 -157.16,62.7 -254.93,187.8 -86.11,109.9 -143.54,251.1 -202.18,332.9 -3.3,-2 -6.54,-4.1 -9.72,-6.2 -26.56,-17.6 -53.61,-35.7 -74.99,-60.2" /><path
         id="path252"
         style="fill:#ffb27d;fill-opacity:1;fill-rule:nonzero;stroke:none"
         d="m 8995.12,3983.1 c 16.93,-84.6 137.51,-70.4 272.23,-37.5 134.73,32.9 102.7,-6.2 294.45,15 191.74,21.2 249.82,92.7 255.67,121.2 5.24,25.3 -89.51,34.2 -191.13,45.9 -12.78,1.5 -25.62,3.1 -38.45,4.6 -114.74,14.4 -198.76,88.5 -302.98,149.3 -98.71,57.6 -246.03,292.2 -246.03,292.2 L 8775.93,4553 c 0,0 137.99,-209.6 191.36,-300.7 31.39,-53.6 29.72,-124.5 25.81,-179.2 -2.04,-29.8 -3.98,-60.2 2.02,-90" /><path
         id="path254"
         style="fill:#c65447;fill-opacity:1;fill-rule:nonzero;stroke:none"
         d="m 9267.35,3945.6 c 134.73,32.9 102.7,-6.2 294.45,15 191.74,21.2 249.82,92.7 255.67,121.2 5.24,25.3 -89.51,34.2 -191.13,45.9 l -0.95,-1.9 c 0,0 -114.99,-81.5 -274.59,-85.4 -130.09,-3.1 -267.87,34.1 -357.7,32.7 -2.04,-29.8 -3.98,-60.2 2.02,-90 16.93,-84.6 137.51,-70.4 272.23,-37.5" /><path
         id="path256"
         style="fill:#ffb27d;fill-opacity:1;fill-rule:nonzero;stroke:none"
         d="m 8410.03,7845.3 c 0,0 62.65,153.5 131.56,159.8 68.92,6.2 288.2,40.7 303.86,9.4 15.66,-31.4 0,-144.1 -46.99,-184.9 -46.99,-40.7 -338.31,-106.5 -338.31,-106.5 l -50.12,122.2" /><path
         id="path258"
         style="fill:#aa413e;fill-opacity:1;fill-rule:nonzero;stroke:none"
         d="M 7987.41,5664.5 7420.69,4139.4 c 0,0 -87.06,-8.4 -170.53,15.6 -76.8,22.1 -164.82,80.3 -164.82,80.3 0,0 140.58,1464.4 398.32,1769 257.73,304.6 503.75,-339.8 503.75,-339.8" /><path
         id="path260"
         style="fill:#c65447;fill-opacity:1;fill-rule:nonzero;stroke:none"
         d="m 5745.9,6281.5 c 0,0 1628.42,550.7 1991.59,433.5 363.17,-117.1 1453.59,-2286.6 1453.59,-2286.6 0,0 -24.59,-32.7 -91.77,-57.9 -62.49,-23.5 -213.73,-22 -213.73,-22 0,0 -984.08,843.5 -1101.23,1089.5 -117.15,246.1 -164.01,480.4 -281.17,456.9 -117.15,-23.4 -1511.26,-574 -1827.57,-246 -316.31,328.1 -233.59,754.2 -233.59,754.2 l 303.88,-121.6" /><path
         id="path262"
         style="fill:#b5453c;fill-opacity:1;fill-rule:nonzero;stroke:none"
         d="m 6674.28,10164.2 c -70.39,40 -154.75,44.4 -213.75,40.9 15.2,15.7 45.08,21.4 45.08,21.4 -36.59,5.4 -118.25,-30.9 -118.25,-30.9 -508.93,196.1 -588.92,-553.2 -578.22,-727.3 10.62,-174.1 11.9,-374.5 -242.15,-530.6 -499.88,-307.2 -78.1,-843.6 -78.1,-843.6 3.93,-2.3 232.57,-390.1 232.57,-390.1 -12.84,140.7 636.28,883.1 974.94,1105.5 82.44,121.3 111.74,335.7 113.94,352.6 -14.23,-170 -43.32,-265.3 -69.31,-319 286.77,263.9 119.82,1215.1 -66.75,1321.1" /><path
         id="path264"
         style="fill:#ffb27d;fill-opacity:1;fill-rule:nonzero;stroke:none"
         d="m 6676.35,8798.4 c 1.7,-0.8 -163.51,-86.5 -287.79,-52.6 -116.89,31.9 -193.26,183.5 -191.65,183.8 49.5,9.9 63.77,77.9 62.72,370.2 l 22.38,-4.4 376.29,-74.5 c 0,0 -8.56,-118.4 -8.82,-230 -0.25,-93.7 5.43,-182.5 26.87,-192.5" /><path
         id="path266"
         style="fill:#ed975d;fill-opacity:1;fill-rule:nonzero;stroke:none"
         d="m 6658.3,9220.9 c 0,0 -8.56,-118.4 -8.82,-230 -210.56,5.9 -321.86,198 -367.47,304.5 l 376.29,-74.5" /><path
         id="path268"
         style="fill:#ffb27d;fill-opacity:1;fill-rule:nonzero;stroke:none"
         d="m 6728.61,9115.3 c 0,0 -498.18,-8.3 -498.52,302.1 -0.34,310.3 -64.88,518.2 253.19,536.6 318.06,18.4 380,-100 405.3,-203.5 25.31,-103.6 -30.38,-625.1 -159.97,-635.2" /><path
         id="path270"
         style="fill:#b5453c;fill-opacity:1;fill-rule:nonzero;stroke:none"
         d="m 6710.18,9961.6 c 0,0 -136.41,-364.1 -345.74,-417.9 -209.33,-53.8 -300.14,2.2 -300.14,2.2 0,0 160.57,127.6 193.89,350.3 0,0 349.1,238.7 451.99,65.4" /><path
         id="path272"
         style="fill:#b5453c;fill-opacity:1;fill-rule:nonzero;stroke:none"
         d="m 6676.37,9932 c 0,0 101.87,-81.2 126.71,-160.3 24.83,-79 36,-241.7 83.41,-236.1 0,0 102.77,247.4 -12.72,387.4 -122.46,148.4 -197.4,9 -197.4,9" /><path
         id="path274"
         style="fill:#699dee;fill-opacity:1;fill-rule:nonzero;stroke:none"
         d="m 8415.26,7922.3 c 0,0 -734.19,-275.9 -807.14,-281.2 -158.95,-11.3 -320.7,755.9 -469.26,1011.5 -107.4,184.9 -486.67,235.2 -486.67,235.2 0,0 -37.73,-206 -455.28,41.8 -14.76,8.8 -179.1,-234.6 -337.41,-534.6 -174.49,-331 -341.64,-730.8 -292.51,-936.9 93.73,-392.8 -281.18,-968.4 -203.07,-1185.2 26.87,-74.5 109.26,-93.7 219.71,-80.8 210.57,24.6 523.38,166 748.79,263.8 343.67,148.9 499.88,9 609.23,103.8 103.55,89.8 -101.02,283.7 49.43,1135.3 0.27,-0.5 0.52,-0.9 0.79,-1.3 117.86,-190.6 336.01,-514.3 475.66,-547.2 68.89,-16.3 215.41,41.1 377.56,123 306.57,154.9 669.05,397.6 669.05,397.6 23.43,140.6 -98.88,255.2 -98.88,255.2" /><path
         id="path276"
         style="fill:#ffffff;fill-opacity:1;fill-rule:nonzero;stroke:none"
         d="m 6617.87,9303.4 c 0,0 9.28,-39.5 107.35,-33.4 0,0 82.35,5.1 79.83,48.4 0,0 -79.84,30.9 -187.18,-15" /><path
         id="path278"
         style="fill:#4a75cb;fill-opacity:1;fill-rule:nonzero;stroke:none"
         d="m 5363.92,6272.9 c 26.87,-74.5 109.26,-93.7 219.71,-80.8 145.74,63.5 775.35,307.4 768.32,472.7 -10.47,244.7 -121.07,252.5 -42.96,554.6 62.72,242.5 -519.03,693.4 -611.82,791.4 -174.49,-331 -179.31,-346.6 -130.18,-552.7 93.73,-392.8 -281.18,-968.4 -203.07,-1185.2" /><path
         id="path280"
         style="fill:#4a75cb;fill-opacity:1;fill-rule:nonzero;stroke:none"
         d="m 6991.87,7693.7 c 117.86,-190.6 336.01,-514.3 475.66,-547.2 68.89,-16.3 215.41,41.1 377.56,123 -118.33,-30.5 -233.3,-29.7 -344.99,-18.9 -121.07,11.7 -156.21,160.1 -347.57,382.7 -124.11,144.4 -154.57,108 -160.66,60.4" /><path
         id="path282"
         style="fill:#ffb27d;fill-opacity:1;fill-rule:nonzero;stroke:none"
         d="m 6408.57,7225.2 c 0,0 105.45,82 205.03,62.5 99.59,-19.5 148.4,-87.9 144.5,-119.1 -3.91,-31.3 -56.63,-119.1 -132.78,-126.9 -76.15,-7.8 -292.9,46.8 -292.9,46.8 l 76.15,136.7" /><path
         id="path284"
         style="fill:#699dee;fill-opacity:1;fill-rule:nonzero;stroke:none"
         d="m 6196.91,8929.6 c 0,0 -406.05,-25 -546.61,-221 -197.86,-276 -541.52,-1402.7 -447.8,-1660.4 l 1235.37,5.2 c 0,0 29.94,139.9 -11.72,207.6 -41.66,67.7 -718.57,177 -749.81,208.3 -31.24,31.2 390.53,609.2 390.53,702.9 0,93.8 130.04,757.4 130.04,757.4" /><path
         id="path286"
         style="fill:#1c468a;fill-opacity:1;fill-rule:nonzero;stroke:none"
         d="m 6514.56,6705 h 1495.6 l 269.62,940.2 H 6786.49 L 6514.56,6705" /><path
         id="path288"
         style="fill:#163560;fill-opacity:1;fill-rule:nonzero;stroke:none"
         d="M 8005.04,6741.6 H 6049.81 V 6705 h 1955.23 v 36.6" /><path
         id="path290"
         style="fill:#163560;fill-opacity:1;fill-rule:nonzero;stroke:none"
         d="m 7535.24,7190.4 c 9.48,33 -9.63,59.8 -42.68,59.8 -33.05,0 -67.53,-26.8 -77,-59.8 -9.48,-33.1 9.63,-59.9 42.68,-59.9 33.05,0 67.53,26.8 77,59.9" /><path
         id="path292"
         style="fill:#254975;fill-opacity:1;fill-rule:nonzero;stroke:none"
         d="m 7176.1,3501.8 c 0,0 -19.99,-126.6 -74.61,-202.5 -39.97,-56 -22.65,-174.6 -9.32,-235.8 -62.62,22.6 -127.89,34.6 -178.52,50.6 -27.98,8 -50.62,18.6 -65.28,32 -71.93,70.6 -366.36,355.7 -366.36,355.7 l 113.24,623.4 c 113.24,-133.2 223.81,-254.4 318.4,-354.3 149.21,-159.9 257.12,-262.5 262.45,-267.8 0,-1.3 0,-1.3 0,-1.3 z M 4512.99,6159.5 c 115.91,-6.6 223.82,-9.3 307.74,-12 71.95,-19.9 125.23,-34.6 143.88,-39.9 -157.2,8 -315.73,16 -467.61,22.6 8,8 13.33,18.7 15.99,29.3 z M 7896.83,3146.1 c -73.28,70.6 -366.36,355.7 -366.36,355.7 -183.85,463.6 -404.99,957.8 -616.82,1381.5 -267.78,534.2 -520.9,955.2 -664.78,1056.4 -78.6,54.6 -361.03,97.3 -718.06,127.9 -2.66,4 -3.99,6.7 -6.66,9.3 17.31,4 29.3,14.7 35.97,30.7 7.99,13.3 10.65,31.9 10.65,51.9 0,57.3 -26.64,129.3 -66.61,154.6 -51.95,33.3 -190.51,14.6 -267.77,0 -78.6,-16 -233.14,-14.7 -233.14,-14.7 -10.66,2.7 -31.98,9.3 -62.62,18.7 -29.3,9.3 -67.94,19.9 -113.23,34.6 -142.55,87.9 -339.72,213.2 -412.99,277.1 27.98,79.9 37.3,157.2 -1.34,169.2 -59.94,20 -214.48,318.4 -281.09,453 1.33,95.9 6.66,187.8 6.66,195.8 -5.33,307.7 -399.67,746 -560.86,908.6 h 19.97 c -29.3,19.9 -57.28,41.3 -85.25,63.9 -29.31,22.7 17.32,69.3 0,103.9 -6.67,13.3 -27.98,13.3 -59.95,8 -1.33,9.3 -1.33,17.3 -1.33,24 -1.34,43.9 1.33,106.6 3.99,162.5 17.32,-1.3 27.98,-1.3 27.98,-1.3 90.59,4 151.87,227.8 177.19,409 0,0 50.62,105.2 50.62,218.5 0,57.2 -13.33,115.9 -53.29,163.8 -23.98,29.3 -46.63,46.7 -66.61,57.3 -35.98,40 -183.85,199.8 -350.38,271.8 -67.94,-297.1 -115.9,-599.5 -150.54,-905.9 -19.97,-179.9 -34.64,-361.1 -45.29,-542.2 -26.65,-455.7 -23.98,-913.9 -1.34,-1357.6 9.33,-177.1 21.32,-351.7 35.98,-523.5 11.98,-135.9 25.31,-269.1 39.96,-401 2.66,-21.3 5.33,-44 8,-65.3 3.99,-41.3 7.99,-81.3 13.32,-121.2 3.99,-30.7 6.66,-61.3 10.65,-92 8,-59.9 14.66,-118.5 23.98,-175.8 19.99,-147.9 41.3,-293.1 63.95,-433 9.33,-61.3 19.99,-122.5 30.64,-182.5 h 431.64 c 1.34,-4 18.66,-181.2 5.33,-500.9 v -4 c -6.66,-155.9 -19.98,-346.4 -47.96,-567.5 -15.98,-137.3 -38.63,-286.5 -66.61,-446.3 23.98,-90.6 45.3,-173.2 65.28,-245.2 17.32,53.3 34.64,106.6 50.62,159.9 33.31,111.9 62.62,221.2 86.6,326.4 151.87,655.5 139.88,1156.4 126.55,1277.6 h 599.5 c -17.31,-151.9 -30.64,-903.2 278.44,-1805.1 27.98,-80 57.28,-161.3 90.59,-242.5 6.66,-18.7 14.65,-38.6 22.65,-57.3 0,-1.3 1.33,-2.7 1.33,-4 h 58.62 c 0,1.3 0,2.7 -1.34,4 -3.99,18.7 -9.32,38.6 -13.32,57.3 -19.98,83.9 -37.3,165.2 -54.62,245.1 -231.81,1119.1 -163.86,1794.5 -162.53,1802.5 h 510.24 c -17.31,-150.5 -30.64,-901.9 278.43,-1802.5 0,0 0,0 0,-1.3 26.65,-79.9 57.29,-161.2 90.59,-243.8 5.34,-14.7 12,-30.6 17.32,-45.3 2.67,-4 4,-8 5.33,-12 1.34,-1.3 1.34,-2.7 1.34,-4 h 58.62 v 4 c -4,18.7 -9.33,38.6 -13.33,57.3 -19.98,82.6 -37.3,162.5 -53.29,239.8 v 1.3 C 5401.59,4353 5469.53,5029.8 5470.85,5037.8 h 146.55 c 22.65,0 41.3,17.3 41.3,38.6 0,10.7 -4,21.4 -11.99,28 -6.66,6.7 -17.32,12 -29.31,12 h -14.65 c 0,0 -11.99,46.6 -157.21,95.9 62.62,2.7 106.58,5.4 125.23,8 37.31,4 74.61,6.7 109.24,8 122.57,5.3 223.82,-4 223.82,-4 25.31,-97.2 70.61,-202.5 129.23,-313.1 7.99,-434.3 31.97,-1008.5 94.59,-1409.4 0,0 -19.99,-126.6 -74.62,-202.5 -17.31,-24 -22.64,-58.7 -23.98,-97.3 -1.32,-82.6 23.98,-177.2 23.98,-177.2 l 10.66,-34.6 26.65,-89.3 h 263.78 v 80 c 34.63,-12 63.95,-24 89.26,-36 51.95,-24 81.26,-44 81.26,-44 h 877.93 v 80 c 107.91,-36 170.53,-80 170.53,-80 h 746.04 c -75.94,206.5 -349.04,175.9 -422.31,245.2" /><path
         id="path294"
         style="fill:#163560;fill-opacity:1;fill-rule:nonzero;stroke:none"
         d="m 7083.48,2906.7 -268.69,-1.4 c 9.58,40.3 18.02,80.4 24.9,115.2 6.44,32.1 11.42,59.8 14.86,79.1 3.32,18.5 5.08,29.3 5.08,29.3 l 154.6,-153.5 69.25,-68.7" /><path
         id="path296"
         style="fill:#163560;fill-opacity:1;fill-rule:nonzero;stroke:none"
         d="m 6226.58,2902.5 -268.69,-1.3 c 4.9,20.5 9.46,41 13.69,60.8 19.01,88.6 31.16,162.7 31.16,162.7 l 191.27,-189.9 32.57,-32.3" /><path
         id="path298"
         style="fill:#163560;fill-opacity:1;fill-rule:nonzero;stroke:none"
         d="m 4966.59,4779 c 28.16,-6.8 72.82,-13.1 130.45,-19 v -0.1 c 222.84,-23 639.24,-39.3 1039.85,-41.7 142.44,-0.8 282.76,0.1 411.78,3 0.55,0 1.11,-0.1 1.66,0 112.07,2.7 215.5,6.9 304.07,12.9 98.1,6.6 178.13,15.5 231.35,26.8 38.72,8.2 63.38,17.7 70.85,28.7 63.35,92.4 220.94,277.5 200.1,417.4 -4.24,28.6 -15.77,55.2 -37.15,78.7 0,0 -109.07,40.6 -280.58,97.8 h -0.11 c -339.79,113.2 -924.78,291.3 -1392.78,347.6 h -0.1 c -276.28,33.3 -511.81,24.2 -631.99,-65.9 -426.73,-319.6 -320.85,-821.1 -47.4,-886.2" /><path
         id="path300"
         style="fill:#163560;fill-opacity:1;fill-rule:nonzero;stroke:none"
         d="m 6856.87,4748.9 c 0,-0.1 0,-0.1 0,-0.2 -0.77,-4.8 -1.66,-9.7 -2.43,-14.6 -0.66,-4.4 -1.44,-8.8 -2.21,-13.3 -4.09,-23.8 -8.63,-48.5 -13.74,-74.2 -2.44,-13 -5.1,-26.2 -7.99,-39.6 -2.67,-13 -5.45,-26.1 -8.45,-39.5 -29.14,-133.4 -70.91,-290.3 -128.8,-474.6 v -0.1 c -77.71,-246.7 -184.64,-542.5 -330.06,-897.1 -20.67,-50.4 -42.14,-102.1 -64.51,-154.9 -19,-45.2 -38.68,-91.3 -59.03,-138.3 l -176.93,-0.8 c -32.7,13.9 -64.97,33.3 -91.14,60.3 -15.32,15.6 -28.59,33.9 -38.47,55.2 -22.53,48.2 -29.61,335.3 2.77,691.5 11.65,129.1 28.49,267.1 51.69,406.1 25.19,152 57.87,305.2 99.71,449.1 3.91,13.6 7.82,27 11.96,40.3 3.92,13 8.06,26 12.21,38.8 8.17,25.4 16.69,50.6 25.44,75.2 1.46,4 2.81,7.9 4.15,11.6 v 0.2 c 14.71,40.3 30.21,79.5 46.63,117.1 v 0.1 c 79.95,183.4 181,331.5 307.74,412 88.98,56.2 190.64,79.4 306.5,57.8 2.62,-0.5 5.24,-1 7.74,-1.5 0,0 126.36,-74.7 47.22,-566.6" /><path
         id="path302"
         style="fill:#ed7d2b;fill-opacity:1;fill-rule:nonzero;stroke:none"
         d="m 5234.79,8158.8 c 0,0 -20.63,-3.4 -51.54,-10.8 -74.69,-17.8 -209.39,-58.7 -258.09,-130.8 -68.86,-102 -426.04,-1471.7 -406.04,-1670 20,-198.3 428.84,-501.2 567.4,-523.9 l 148.27,2335.5 v 0" /><path
         id="path304"
         style="fill:#f4a269;fill-opacity:1;fill-rule:nonzero;stroke:none"
         d="m 5644.77,7943.2 c 1.44,-1.1 -0.15,-208.6 -179.79,-164.9 -117.93,28.7 -346.11,223.3 -303.36,320.7 20.32,46.3 134.99,154.2 209.63,437.3 l 20.52,-10 344.87,-169.5 c 0,0 -38.94,-112.4 -68.06,-220.3 -24.48,-90.6 -41.98,-178 -23.81,-193.3" /><path
         id="path306"
         style="fill:#ffb27d;fill-opacity:1;fill-rule:nonzero;stroke:none"
         d="m 5884.6,8284.5 c 0,0 -517.28,-119.5 -586.77,203.8 -69.49,323.3 -183.05,525.5 144.28,615.5 327.34,90 418.24,-19.5 467.68,-121.7 49.43,-102.3 107.58,-658.1 -25.19,-697.6" /><path
         id="path308"
         style="fill:#1c468a;fill-opacity:1;fill-rule:nonzero;stroke:none"
         d="m 4856.86,5251.8 c 0,0 317.48,-256.4 299.89,-435 -17.59,-178.6 249.82,36.9 249.82,36.9 l -124.28,400.2 -425.43,-2.1" /><path
         id="path310"
         style="fill:#1c468a;fill-opacity:1;fill-rule:nonzero;stroke:none"
         d="M 7578.03,4045.5 C 7482.17,3741.4 7343.22,3367.1 7145.21,2907 l -174.87,-0.9 c -26.56,11.2 -53.01,26 -76.18,45.6 -22.04,18.3 -41.14,40.9 -54.47,68.8 -0.34,0.6 -0.57,1.3 -0.92,1.9 -11.14,23.6 -18.35,104.6 -19.16,223.2 -1.24,207.3 17.44,529 71.1,858.4 22.3,137.3 50.74,276.1 86.37,408.3 5.02,18.8 10.27,37.4 15.64,56 7.72,26.8 15.78,53.2 24.18,79.2 0.22,0.8 0.44,1.5 0.79,2.3 8.06,25.1 16.47,49.8 25.1,74.1 -38.31,-1 -77.65,-1.8 -117.79,-2.3 h -0.34 c -23.88,-0.4 -47.98,-0.6 -72.43,-0.8 -98.01,-0.8 -199.9,-0.6 -301.9,0.4 -0.57,-0.1 -1.14,0 -1.71,0 -138.27,1.3 -277.01,4.4 -407.58,8.8 -123.84,4 -240.42,9.2 -342.11,15.5 -29.12,1.6 -56.99,3.5 -83.49,5.5 -122.85,8.8 -216.25,19 -263.38,30.3 -32.22,7.7 -62.08,21.4 -89.01,40.2 -10.15,7 -19.97,14.7 -29.22,23.2 -0.11,0.2 -0.23,0.3 -0.23,0.3 -85.89,78.2 -133.62,213.1 -117.85,361.8 -0.01,0.1 -0.01,0.1 0.11,0.2 1.51,15.4 3.83,31 6.93,46.6 1.67,8.8 3.67,17.8 5.9,26.8 7.36,30.1 17.33,60.5 30.15,90.8 44.07,104 121.57,207.2 240.75,296.3 33.32,25 74.73,44 123.1,57.5 7.61,2.2 15.33,4.2 23.28,6 0.11,0 0.11,0.1 0.11,0.1 0,0 0,0 0.12,0 h 0.11 c 3.52,0.9 7.04,1.7 10.57,2.4 24.3,5.4 50.1,9.7 77.14,12.9 144.78,17.4 325.19,4.6 518.18,-24.2 h 0.11 c 20.03,-3 40.29,-6.1 60.55,-9.5 186.52,-30.5 382.19,-74.2 567.08,-119 0.34,-0.2 0.56,-0.2 0.79,-0.3 56.93,-13.6 112.6,-27.5 166.9,-41 12.3,-3.1 24.48,-6.2 36.55,-9.3 64.89,-16.3 127.17,-32.1 185.91,-46.7 40.19,-9.9 78.23,-21 114.1,-32.5 l 1.25,-0.4 c 200.67,-64.3 329.55,-142.8 329.89,-142.9 0,0 205.59,-188.4 -137.3,-1275.1" /><path
         id="path312"
         style="fill:#163560;fill-opacity:1;fill-rule:nonzero;stroke:none"
         d="m 4723.03,5350 c 27.31,-37.8 73.66,-70.6 133.71,-98.2 h 0.12 c 429.69,-197.8 1453.82,249.5 1403.63,545.3 -17.67,104.2 -98.89,103.2 -163.06,273.1 -49.82,132 -85.87,255.7 -84.79,376.9 0.41,51.3 7.69,102.4 23.28,153.5 38.05,123.7 72.53,322.6 93.98,534.5 36.56,360.9 -63.86,750.3 -150.66,878.2 -12.27,18.1 -651.63,188.9 -1200.65,7.2 0,0 -40.31,-638.9 88.53,-1304.7 17.26,-88.8 9.74,-180.6 -21.97,-265.4 C 4746.31,6186 4552.08,5586.5 4723.03,5350" /><path
         id="path314"
         style="fill:#1c468a;fill-opacity:1;fill-rule:nonzero;stroke:none"
         d="m 5801.4,6590.2 c -75.18,231.1 -98.05,517.9 51.18,815.2 0,0 153.4,-92.1 277.32,-270.3 -21.45,-211.9 -55.93,-410.8 -93.98,-534.5 -16.08,-52.4 -23.13,-104.8 -23.24,-157.6 -0.01,-3 0.04,-6.1 0.08,-9.1 0.1,-6.9 0.31,-13.9 0.63,-20.8 0.14,-3 0.23,-5.9 0.41,-8.9 0.55,-9.1 1.27,-18.2 2.19,-27.3 0.29,-3 0.68,-5.9 1.02,-8.9 0.76,-6.8 1.62,-13.5 2.57,-20.3 0.5,-3.6 1,-7.1 1.54,-10.6 1.28,-8.2 2.68,-16.5 4.22,-24.8 0.57,-3.1 1.18,-6.1 1.79,-9.2 1.47,-7.5 3.04,-14.9 4.7,-22.4 0.84,-3.8 1.7,-7.6 2.58,-11.3 1.59,-6.8 3.25,-13.5 4.97,-20.3 0.8,-3.1 1.54,-6.2 2.36,-9.3 2.42,-9.1 4.98,-18.3 7.64,-27.5 1.08,-3.8 2.22,-7.5 3.34,-11.3 1.95,-6.5 3.94,-13.1 5.99,-19.6 1.15,-3.6 2.27,-7.3 3.45,-10.9 3.01,-9.4 6.1,-18.8 9.31,-28.2 1.07,-3.1 2.19,-6.3 3.28,-9.4 2.54,-7.4 5.11,-14.7 7.75,-22.1 1.24,-3.4 2.47,-6.8 3.73,-10.3 3.66,-10.1 7.36,-20.1 11.2,-30.3 64.17,-169.9 216.86,-256 217.04,-341.9 0.48,-222 -1027.92,-674.3 -1457.61,-476.5 1000.06,-148.9 944.78,1332.2 944.54,1338.4" /><path
         id="path316"
         style="fill:#ffb27d;fill-opacity:1;fill-rule:nonzero;stroke:none"
         d="m 5671.87,8675.4 c 0,0 -52.2,105 -100.09,84.5 -47.9,-20.6 19.38,-190.1 50.75,-188.1 31.37,2 49.34,103.6 49.34,103.6" /><path
         id="path318"
         style="fill:#1c468a;fill-opacity:1;fill-rule:nonzero;stroke:none"
         d="m 5819.38,9208.7 c -109.98,70.8 -225.55,79.7 -225.55,79.7 -84.82,10.3 -158.38,2.7 -221.05,-17.2 -0.04,0 -0.07,0.1 -0.1,0.1 -10.29,10.2 -20.67,17.6 -31.16,21.9 -334.18,137.7 -653.1,-336.3 -541.48,-725.4 48.01,-167.8 -183.91,-364.5 -403.04,-526.1 -184.91,-136.5 -220.79,-311.4 -201.5,-466.8 25.69,-207.6 144.26,-388.5 325.25,-451.2 -93.35,137.7 -89.35,274.8 -89.35,274.8 6.13,-67.5 51.61,-136.8 101.35,-193.8 36.47,-41.8 79.29,-77.3 126.5,-105.9 44.37,-26.7 92.79,-47.3 143.24,-60.9 4.89,-1.4 9.9,-2.7 14.68,-3.9 147.1,-39 258.18,-58.7 342.02,-66.2 42.66,-3.9 78.26,-4.7 108.04,-3.3 87.99,4.1 124.84,27 140.1,43.9 9.51,10.5 10.72,18.8 10.72,18.8 242.62,403.4 -307.07,431.9 -88.71,821.8 15.33,27.4 34.4,56.6 57.9,87.9 26.5,46.7 45.99,106.9 60.04,164.2 22.3,90.1 31.1,173.9 32.62,189.7 -4.17,-78 -11.37,-140.3 -20.23,-190.2 v -0.1 c -10.17,-58.5 -22.37,-99.7 -34.05,-129 29.86,32.8 53.87,76.1 72.61,126.9 19.3,52.2 33.23,112.3 42.23,177.3 7.7,54.1 11.97,111.8 13.27,171 0.86,32.9 0.7,66.4 -0.26,100 v 0.1 0.1 c 52.97,83.2 95.43,215.4 173.86,277.7 -29.58,-157.4 -112.76,-350.2 -112.76,-350.2 300.54,142.6 352.64,531.3 352.64,531.3 0,0 -0.01,0 -0.02,0 27.61,91.5 -90.84,166.3 -147.81,203" /><path
         id="path320"
         style="fill:#163560;fill-opacity:1;fill-rule:nonzero;stroke:none"
         d="m 4327.96,6511.4 c -1.34,4.4 -2.67,8.6 -4,12.9 219.73,29.5 785.77,94.8 1091.4,32.4 135.56,-420.4 278.37,-1016.6 298.08,-1701.6 -74.88,-0.8 -153.81,-2.3 -237.51,-4.8 -117.71,-3.5 -221.8,-8.9 -313.91,-15.9 0.02,-0.1 0.04,-0.3 0.06,-0.4 -352.34,-26.8 -526.18,-75 -611.83,-117.3 0.2,729.7 -97.38,1387.2 -222.29,1794.7 z m 1004.43,285.4 c 18.28,-49.5 37.29,-103 56.62,-160.3 -335.23,52.8 -880.26,-12.1 -1087.49,-40.6 -19.85,62.3 -39.23,120.3 -57.86,174.2 235.3,30.9 794.94,92.8 1088.73,26.7 z M 4549.85,4635.4 v 0 l 261.87,1.3 -112.36,-0.6 z m 2483.59,12.1 -14.81,-0.1 c 0,0 -0.02,0.1 -0.05,0.2 -2.02,6.9 -71.41,210 -1220.59,208 -10.78,676.3 -103.99,1279.3 -221.28,1661.9 -140.97,459.8 -267.16,724.1 -268.61,727 -9.56,18.4 -42.34,29.8 -95.08,24.9 -60.31,-5.5 -61.91,-46.9 -52.35,-65.4 1.83,-3.6 61.44,-120.7 140.93,-325.9 -326.34,54.6 -862.91,-6.9 -1083.04,-36.7 -90.91,254 -158.16,394.9 -159.22,397 -9.56,18.5 -42.34,29.8 -95.08,24.9 -60.31,-5.5 -61.9,-46.9 -52.35,-65.4 5.71,-11 569.28,-1118.2 554.84,-2563 -10.18,-0.5 -19.41,-4.8 -26.19,-11.7 -7.11,-7.2 -11.46,-17 -11.4,-27.8 0.1,-21.7 17.88,-39.5 39.42,-39.4 l 3.03,0.1 v -0.1 c 0.39,-8.8 61.5,-626.8 -115.85,-1662.6 l 119.27,0.6 c 234.82,839 219.01,1518.6 203.64,1663.1 v 0 l 951.27,4.6 v 0 c 9.16,-129 39.82,-728.7 -118.69,-1662.7 l 118.59,0.6 c 224.51,809.1 221.51,1472.8 207.28,1663.1 v 0 l 146.45,0.7 v 0 c -5.95,-61.7 -11.09,-221.1 4,-448.6 19.76,-298.2 74.09,-713.7 206.44,-1180 3.01,-10.7 6.14,-21.5 9.37,-32.4 l 119.28,0.5 c -8.53,46.9 -16.48,92.8 -23.98,137.9 -158.59,950.9 -108.23,1515.2 -108.05,1523.6 v 0 l 496.9,2.4 v 0 c -6.28,-64 -11.49,-232.9 5.72,-473.9 v -0.1 c 16.12,-227.5 52.21,-519.1 126.36,-847.2 10.81,-47.9 22.42,-96.6 34.94,-146 12.29,-48.6 25.49,-98 39.61,-147.9 4.16,-15.2 8.56,-30.5 13.07,-45.9 l 119.27,0.6 c -4.2,23.3 -8.29,46.3 -12.27,69 -82.59,474.6 -113.67,857.3 -123.52,1128.6 -10.77,296.1 3.68,459.3 3.77,463.8 v 0 l 139.34,0.7 c 10.77,0.1 20.54,4.5 27.53,11.8 7.11,7.2 11.46,17.1 11.41,28 -0.11,21.5 -17.78,39.3 -39.32,39.2" /><path
         id="path322"
         style="fill:#ffb27d;fill-opacity:1;fill-rule:nonzero;stroke:none"
         d="m 7085.31,5706.4 c 0,0 174.21,-47.9 224.27,-93.8 50.07,-45.9 75.85,-149 75.85,-149 l -338.14,87.2 38.02,155.6" /><path
         id="path324"
         style="fill:#163560;fill-opacity:1;fill-rule:nonzero;stroke:none"
         d="m 7083.13,5541.6 c -167.09,19.3 -535.33,164.6 -672.36,332.1 -157.1,192.1 -784.17,1255.4 -669.73,1576.9 40.72,114.5 115.18,576.8 210.92,569.5 87.23,-6.5 213.21,-183.2 242.04,-294.9 117.1,-454.3 278.06,-1334.1 399.11,-1434.4 109.82,-91.1 367.1,-388.1 492.23,-584.4 0,-0.1 0.08,-0.1 0.08,-0.2 38.86,-85.9 21.02,-129.7 -2.29,-164.6" /><path
         id="path326"
         style="fill:#163560;fill-opacity:1;fill-rule:nonzero;stroke:none"
         d="m 15682.4,2880.4 c -13.5,-2.5 -26.5,-5.2 -38.8,-7.9 -1.1,3.1 -2.1,5.8 -2.9,7.9 h 41.7" /><g
         transform="scale(1.10866)"
         id="g328"><path
           id="path330"
           style="fill:#163560;fill-opacity:1;fill-rule:nonzero;stroke:none"
           d="m 16300,2598.09 c -5.7,-1 -11.3,-2.26 -16.7,-3.52 -2.5,1.17 -4.9,2.44 -7.3,3.52 h 24" /></g><g
         transform="scale(1.87547)"
         id="g332"><path
           id="path334"
           style="fill:#f8fbff;fill-opacity:1;fill-rule:nonzero;stroke:none"
           d="m 16228,4596.72 c -91.3,-1056.85 -387.3,-2062.26 -777.2,-2685.89 -87.2,-139.48 -179,-259.88 -274.3,-357.46 h -751.3 v 7237.38 c 810.5,-264.22 1311.1,-926.9 1579.9,-1755.46 239,-736.23 294.9,-1603.47 222.9,-2438.57" /></g><g
         transform="scale(1.71089)"
         id="g336"><path
           id="path338"
           style="fill:#deedff;fill-opacity:1;fill-rule:nonzero;stroke:none"
           d="M 16300,9415.65 V 1696.72 h -487.2 v 7939.64 c 175.4,-57.16 337.6,-131.39 487.2,-220.71" /></g><g
         transform="scale(1.77776)"
         id="g340"><path
           id="path342"
           style="fill:#deedff;fill-opacity:1;fill-rule:nonzero;stroke:none"
           d="m 16300,2015.85 c -91.9,-147.15 -188.9,-274.16 -289.4,-377.1 -1.9,-1.91 -3.8,-3.94 -5.6,-5.85 h -787 v 382.95 h 1082" /></g><g
         transform="scale(1.87547)"
         id="g344"><path
           id="path346"
           style="fill:#e7f1fb;fill-opacity:1;fill-rule:nonzero;stroke:none"
           d="m 16228,4596.72 c -91.3,-1056.85 -387.3,-2062.26 -777.2,-2685.89 h -601.5 v 3149.88 h 178.5 v 859.66 h 178.4 V 4758.98 h 144.5 v 259.45 h 251.7 v -438.71 h 109.5 v 985.3 h 293.2 v 1470.27 c 239,-736.23 294.9,-1603.47 222.9,-2438.57" /></g><g
         transform="scale(1.75141)"
         id="g348"><path
           id="path350"
           style="fill:#599dad;fill-opacity:1;fill-rule:nonzero;stroke:none"
           d="m 15340.5,2724.56 c 0,0 -171.3,199.78 -10.6,326.65 0,0 117.4,71.03 213,65.26 0,0 -135.5,-227.36 -91.6,-249.97 43.8,-22.61 132.8,264.24 132.8,264.24 0,0 267,25.87 352.9,-15.41 0,0 -228.3,-186.82 -180.2,-197.96 48.1,-11.13 294.7,172.26 294.7,172.26 0,0 248.5,-42.3 235.3,-193.9 -13.3,-151.65 -98.9,-198.47 -136.6,-194.41 -37.6,3.99 -257.8,88.1 -262.6,57.21 -4.8,-30.83 127.8,-131.61 220.6,-136.35 0,0 -175.3,-193.21 -291.7,-137.43 -116.5,55.72 -126.4,144.17 -199,177.34 -72.6,33.12 -134.6,33.06 -104.6,-0.74 29.9,-33.86 161.4,-66.69 202.9,-140.17 41.5,-73.43 78.7,-122.93 -41.8,-104.83 -120.4,18.15 -316.3,106.31 -324.9,207.26 -8.6,100.95 -8.6,100.95 -8.6,100.95" /></g><g
         transform="scale(1.73686)"
         id="g352"><path
           id="path354"
           style="fill:#599dad;fill-opacity:1;fill-rule:nonzero;stroke:none"
           d="m 16300,2915.84 c 0,0 -680.7,26.25 -831,-168.47 0,0 -33.3,-99.54 -135.6,-190.22 l -15.9,-43.48 c 0,0 117.9,124.43 160.2,131.91 0,0 -66.1,241.18 822.3,270.26" /></g><g
         transform="scale(1.64299)"
         id="g356"><path
           id="path358"
           style="fill:#599dad;fill-opacity:1;fill-rule:nonzero;stroke:none"
           d="m 16209.5,2703.25 c 0,0 -154.5,-114.25 -165.2,-318.33 l 28,-2.49 c 0,0 49.4,211.02 138.5,293.55 89.2,82.53 -1.3,27.27 -1.3,27.27" /></g><g
         transform="scale(1.61325)"
         id="g360"><path
           id="path362"
           style="fill:#6bb7bf;fill-opacity:1;fill-rule:nonzero;stroke:none"
           d="m 16004.3,3230.62 c 0,0 295.7,165.57 157.7,390.27 0,0 -110.4,138.04 -228.7,173.5 0,0 63.2,-335.1 0,-342.98 -63.1,-7.93 -43.3,378.43 -43.3,378.43 0,0 -311.5,149.82 -433.7,137.99 0,0 193.2,-327.17 130.1,-319.3 -63.1,7.87 -279.9,339.01 -279.9,339.01 0,0 -319.3,59.13 -370.6,-130.05 -51.2,-189.25 31.6,-283.9 78.9,-295.74 47.3,-11.78 350.8,-7.87 342.9,-47.3 -7.8,-39.42 -212.8,-102.46 -327.2,-67 0,0 126.2,-311.42 291.8,-295.68 165.6,15.75 216.8,118.27 319.3,126.15 102.5,7.87 177.4,-19.72 126.2,-47.3 -51.3,-27.59 -224.8,-9.05 -307.5,-79.41 -82.8,-70.41 -149.9,-113.8 3.9,-145.29 153.8,-31.56 429.7,-11.84 484.9,106.43 55.2,118.27 55.2,118.27 55.2,118.27" /></g><g
         transform="scale(1.59686)"
         id="g364"><path
           id="path366"
           style="fill:#6bb7bf;fill-opacity:1;fill-rule:nonzero;stroke:none"
           d="m 15236.5,3837.33 c 0,0 836.4,-270.84 932.1,-573.56 0,0 -4.1,-135.45 79.6,-290.76 v -59.74 c 0,0 -87.6,203.15 -135.4,231.02 0,0 187.2,262.89 -876.3,693.04" /></g><g
         transform="scale(1.60443)"
         id="g368"><path
           id="path370"
           style="fill:#6bb7bf;fill-opacity:1;fill-rule:nonzero;stroke:none"
           d="m 16171.6,2959 c 0,0 128.4,-194.96 55.2,-432.24 l -33.1,8.85 c 0,0 32.1,261.4 -35.1,392.85 -67.1,131.44 13,30.54 13,30.54" /></g><g
         transform="scale(1.77662)"
         id="g372"><path
           id="path374"
           style="fill:#86d1cd;fill-opacity:1;fill-rule:nonzero;stroke:none"
           d="m 14959.8,3140.91 c 0,0 -353.9,198.18 -188.8,467.18 0,0 132.2,165.14 273.8,207.64 0,0 -75.6,-401.1 0,-410.56 75.4,-9.45 51.8,453 51.8,453 0,0 372.8,179.33 519.1,165.2 0,0 -231.2,-391.7 -155.7,-382.24 75.5,9.45 335.1,405.83 335.1,405.83 0,0 382.2,70.8 443.5,-155.75 61.4,-226.5 -37.7,-339.75 -94.3,-353.93 -56.7,-14.13 -420.1,-9.4 -410.6,-56.62 9.5,-47.17 254.8,-122.65 391.7,-80.21 0,0 -151,-372.79 -349.2,-353.93 -198.2,18.91 -259.5,141.56 -382.2,151.01 -122.7,9.46 -212.4,-23.58 -151.1,-56.62 61.4,-33.04 269,-10.81 368.1,-95.07 99.1,-84.26 179.3,-136.16 -4.7,-173.92 -184,-37.72 -514.4,-14.13 -580.5,127.43 -66,141.56 -66,141.56 -66,141.56" /></g><g
         transform="scale(1.7509)"
         id="g376"><path
           id="path378"
           style="fill:#6bb7bf;fill-opacity:1;fill-rule:nonzero;stroke:none"
           d="m 16300,3876.57 c 0,0 -1005.5,-325.6 -1120.4,-689.53 0,0 4.7,-162.83 -95.8,-349.53 v -71.85 c 0,0 105.3,244.22 162.7,277.74 0,0 -225,316.01 1053.5,833.17" /></g><g
         transform="scale(1.63065)"
         id="g380"><path
           id="path382"
           style="fill:#6bb7bf;fill-opacity:1;fill-rule:nonzero;stroke:none"
           d="m 16196.1,3046.76 c 0,0 -166.5,-252.85 -71.6,-560.64 l 42.9,11.47 c 0,0 -41.6,339.01 45.5,509.55 87.1,170.49 -16.8,39.62 -16.8,39.62" /></g><g
         transform="scale(1.70481)"
         id="g384"><path
           id="path386"
           style="fill:#f99746;fill-opacity:1;fill-rule:nonzero;stroke:none"
           d="m 15577.5,1739.55 c 399,0 722.5,323.44 722.5,722.48 h -1445 c 0,-399.04 323.5,-722.48 722.5,-722.48" /></g><g
         transform="scale(1.64784)"
         id="g388"><path
           id="path390"
           style="fill:#ffc294;fill-opacity:1;fill-rule:nonzero;stroke:none"
           d="m 16300,1805.39 c -30.4,-3.76 -61.4,-5.7 -92.9,-5.7 -412.8,0 -747.4,334.68 -747.4,747.46 h 185.7 c 0,-381.41 285.6,-696 654.6,-741.76" /></g><g
         transform="scale(1.70585)"
         id="g392"><path
           id="path394"
           style="fill:#f99746;fill-opacity:1;fill-rule:nonzero;stroke:none"
           d="m 16300,1701.73 h -1464 v 0 c 0,49.18 39.8,89.11 89,89.11 h 1285.9 c 49.2,0 89.1,-39.93 89.1,-89.11 v 0" /></g><g
         transform="scale(1.70653)"
         id="g396"><path
           id="path398"
           style="fill:#f99746;fill-opacity:1;fill-rule:nonzero;stroke:none"
           d="m 16300,2437.41 h -1483.7 v 22.15 H 16300 v -22.15" /></g><path
         id="path400"
         style="fill:#163560;fill-opacity:1;fill-rule:nonzero;stroke:none"
         d="m 11098.2,2900.9 h -716.8 c 76,130.6 165.2,234.5 269.1,299.8 103.9,65.3 221.2,91.9 355.7,66.6 4,-1.3 6.7,-1.3 9.3,-2.7 0,0 92,-54.6 82.7,-363.7" /><path
         id="path402"
         style="fill:#ed7d2b;fill-opacity:1;fill-rule:nonzero;stroke:none"
         d="m 9202.29,6576.8 c 0,0 -23.98,-3.8 -59.94,-12.2 -86.86,-20.2 -243.58,-67 -300.56,-150.5 -80.56,-118 -503.25,-1707.3 -481.14,-1937.7 22.12,-230.5 495.37,-584.7 656.2,-611.9 l 185.44,2712.3 v 0" /><path
         id="path404"
         style="fill:#f4a269;fill-opacity:1;fill-rule:nonzero;stroke:none"
         d="m 9677.35,6324.2 c 1.67,-1.4 -1.34,-242.5 -209.8,-190.6 -136.83,34 -400.81,261.3 -350.6,374.2 23.87,53.7 157.7,178.4 246.01,506.9 l 23.78,-11.8 399.68,-198.9 c 0,0 -45.87,-130.3 -80.31,-255.5 -28.95,-105.1 -49.77,-206.5 -28.76,-224.3" /><path
         id="path406"
         style="fill:#ffb27d;fill-opacity:1;fill-rule:nonzero;stroke:none"
         d="m 9957.9,6719.3 c 0,0 -601.61,-136 -680.51,240 -78.89,375.9 -209.68,611.6 171.1,714.3 380.78,102.7 485.75,-25.1 542.61,-144.1 56.9,-119.1 121.3,-765.2 -33.2,-810.2" /><path
         id="path408"
         style="fill:#163560;fill-opacity:1;fill-rule:nonzero;stroke:none"
         d="m 9489.96,6946 c -143.82,-49 -363.72,233.5 -426.74,398 -77.2,201.6 100.12,601.6 562.56,543.1 0,0 134.21,-10.9 261.58,-93.9 101.29,-65.9 370.64,-236.9 -64.72,-419.2 -163.66,-68.5 -207.5,-385.3 -332.68,-428" /><path
         id="path410"
         style="fill:#163560;fill-opacity:1;fill-rule:nonzero;stroke:none"
         d="m 12068,3266 c 0,0 -149.2,91.9 -382.3,167.8 l -9.4,2.7 c -38.6,12 -81.2,25.3 -125.2,35.9 -67.9,17.4 -139.9,36 -214.5,56 -14.6,2.7 -29.3,6.7 -42.6,10.7 -60,14.6 -119.9,30.6 -182.5,45.3 0,0 0,0 -1.4,0 -4,1.3 -6.6,1.3 -10.6,2.6 -214.5,53.3 -442.3,105.3 -658.1,142.6 h -1.4 c -24,4 -46.6,7.9 -69.2,10.6 -1.4,0 -1.4,0 -2.7,0 -222.5,34.7 -432.98,50.7 -599.51,30.7 -31.97,-2.7 -61.28,-8 -89.25,-13.3 -4,-1.4 -8,-2.7 -13.32,-2.7 -9.33,1.3 -18.66,2.7 -27.98,2.7 h -1.34 c -101.25,11.9 -197.16,18.6 -286.43,18.6 -179.84,0 -327.72,-26.6 -418.31,-94.6 -162.53,-119.9 -258.45,-262.4 -303.75,-403.7 -43.96,-134.5 -41.3,-267.7 -3.99,-377 h 564.86 2396.62 550.2 c 9.4,294.4 -67.9,365.1 -67.9,365.1" /><path
         id="path412"
         style="fill:#f99746;fill-opacity:1;fill-rule:nonzero;stroke:none"
         d="m 8591.9,3316.7 c 31.52,-44 85.18,-82.3 154.78,-114.8 h 0.13 c 498.06,-232.2 1690.29,281.7 1633.69,625.6 -19.9,121.1 -114.3,120.4 -187.9,318.2 -57.1,153.6 -98.3,297.5 -96.3,438.2 0.7,59.7 9.5,119 27.9,178.2 44.9,143.6 86.1,374.5 112.2,620.5 44.5,419 -70,872 -170.1,1021 -14.1,21.1 -755.93,223.2 -1394.76,15.2 0,0 -50.43,-742 95.47,-1516.2 19.56,-103.3 10.29,-209.8 -27.02,-308.1 C 8623.68,4287.9 8394.65,3592.4 8591.9,3316.7" /><path
         id="path414"
         style="fill:#ed7d2b;fill-opacity:1;fill-rule:nonzero;stroke:none"
         d="m 9851.67,4751.4 c -86.04,268.9 -110.98,602.2 64.07,946.8 0,0 177.66,-107.8 320.66,-315.6 -26.1,-246 -67.3,-476.9 -112.2,-620.5 -19,-60.7 -27.5,-121.5 -27.9,-182.9 0,-3.5 0,-7 0,-10.5 0.1,-8.1 0.3,-16.2 0.6,-24.2 0.2,-3.5 0.3,-6.9 0.5,-10.3 0.5,-10.6 1.3,-21.2 2.4,-31.8 0.3,-3.4 0.7,-6.9 1.1,-10.3 0.8,-7.9 1.8,-15.8 2.9,-23.7 0.5,-4.1 1.1,-8.1 1.7,-12.2 1.4,-9.6 3,-19.2 4.7,-28.9 0.7,-3.5 1.4,-7.1 2.1,-10.7 1.6,-8.7 3.4,-17.3 5.3,-26.1 1,-4.3 1.9,-8.7 3,-13.1 1.8,-7.8 3.6,-15.7 5.6,-23.6 0.9,-3.6 1.8,-7.2 2.7,-10.8 2.8,-10.6 5.7,-21.3 8.7,-32 1.3,-4.4 2.6,-8.8 3.8,-13.2 2.3,-7.5 4.5,-15.1 6.9,-22.7 1.3,-4.3 2.6,-8.5 3.9,-12.8 3.5,-10.8 7,-21.8 10.7,-32.7 1.2,-3.7 2.5,-7.4 3.7,-11 2.9,-8.5 5.9,-17.1 8.9,-25.6 1.4,-4 2.8,-8 4.3,-12.1 4.2,-11.7 8.4,-23.4 12.8,-35.2 73.6,-197.8 250.5,-298.7 250.2,-398.4 -0.7,-257.9 -1197.93,-777.6 -1695.99,-545.4 1160.95,-178.6 1105.09,1542.3 1104.86,1549.5" /><path
         id="path416"
         style="fill:#ffb27d;fill-opacity:1;fill-rule:nonzero;stroke:none"
         d="m 9712.98,7174.6 c 0,0 -60.05,122.2 -115.8,98.7 -55.76,-23.6 21.44,-220.9 57.9,-218.8 36.45,2.2 57.9,120.1 57.9,120.1" /><path
         id="path418"
         style="fill:#163560;fill-opacity:1;fill-rule:nonzero;stroke:none"
         d="m 9468.84,7678.3 v 1.3 c -29.3,83.9 -62.61,150.5 -98.58,187.8 h -1.33 v 1.4 c -11.99,12 -23.98,20 -35.97,25.3 -387.68,162.5 -760.7,-386.4 -632.8,-839.3 54.62,-195.9 -215.83,-422.3 -471.61,-608.8 -215.82,-157.2 -258.45,-361.1 -237.13,-540.9 29.3,-242.5 165.19,-453 375.68,-526.3 -98.58,145.3 -102.58,290.5 -102.58,315.8 7.99,-77.3 61.29,-157.2 117.24,-222.5 41.3,-47.9 89.26,-89.2 145.2,-122.5 0,-1.4 1.34,-1.4 1.34,-1.4 50.62,-30.6 106.57,-54.6 165.19,-70.6 5.34,-2.7 11.99,-4 17.32,-5.3 170.53,-45.3 299.75,-69.3 397.01,-78.6 49.29,-5.3 90.59,-5.3 125.23,-4 102.57,4 145.2,30.6 163.85,49.3 10.67,13.3 11.99,22.6 11.99,22.6 283.77,466.3 -354.36,503.6 -98.58,955.2 18.65,32 39.96,65.3 67.94,101.3 30.64,54.6 53.3,123.9 70.62,190.5 17.32,70.6 29.3,137.2 34.63,178.5 -5.33,-71.9 -10.66,-130.6 -19.98,-178.5 -12,-68 -26.65,-115.9 -39.97,-150.6 34.64,38.7 62.61,88 83.93,147.9 22.65,60 39.97,129.2 50.63,205.2 9.32,62.6 14.65,129.2 15.98,198.5 1.33,37.3 1.33,75.9 0,113.2 0,1.3 0,1.3 0,2.7 -5.33,238.4 -46.63,482.2 -105.25,652.8" /><path
         id="path420"
         style="fill:#163560;fill-opacity:1;fill-rule:nonzero;stroke:none"
         d="m 8109.79,4766.6 c -23.81,72.8 -45,140.3 -67.49,202.5 272.96,34.6 923.86,103.5 1265.22,25.1 0.05,-0.1 0.09,-0.2 0.13,-0.4 21.29,-57.2 42.57,-119.7 65.19,-186.2 -388.86,63.1 -1021.76,-9 -1263.05,-41 z M 9815.22,3303.2 c 0,5.4 -1.33,9.4 -1.33,13.4 -10.66,147.9 -23.98,289.1 -41.3,423.6 -1.33,10.7 -2.66,21.3 -4,30.7 -6.66,58.6 -14.65,115.9 -22.64,170.5 v 1.3 c -42.63,282.5 -95.93,528.9 -155.87,726.1 -71.95,235.8 -139.89,429 -193.18,570.2 -67.94,177.2 -113.24,273.1 -114.56,275.7 -10.66,21.3 -49.29,34.7 -110.58,29.3 -17.32,-1.3 -30.64,-6.6 -41.3,-11.9 -27.97,-17.4 -27.97,-48 -19.98,-64 0,-1.3 5.33,-10.6 14.66,-29.3 19.98,-41.3 58.61,-126.6 107.91,-249.1 11.95,-31.9 25.25,-65.1 39.86,-101 -378.85,65.4 -1002.9,-3.2 -1258.75,-36.5 -0.03,0.1 -0.07,0.2 -0.1,0.3 -103.91,295.7 -181.17,459.6 -182.51,462.2 -10.66,21.3 -49.29,34.7 -110.57,29.3 -69.29,-6.6 -71.94,-54.6 -61.28,-75.9 6.66,-12 551.53,-1096.4 623.47,-2567.2 h 101.24 c -21.3,718.1 -119.89,1353.6 -245.12,1767.9 -1.32,5.2 -2.63,10.5 -3.95,14.5 255.92,33.1 914.19,105.7 1268.51,31.2 82.51,-265 168.98,-588.4 232.85,-956.9 h 1.34 c 0,-2.7 1.33,-6.7 1.33,-10.7 2.66,-18.7 6.66,-37.3 9.33,-56 22.64,-134.5 41.3,-273.1 55.95,-418.3 1.33,-2.7 1.33,-5.3 1.33,-8 11.99,-118.5 21.31,-239.8 27.98,-363.7 h 101.25 c -4,137.2 -10.66,271.8 -19.99,402.3" /><path
         id="path422"
         style="fill:#ffb27d;fill-opacity:1;fill-rule:nonzero;stroke:none"
         d="m 11338.2,3717.4 c 0,0 202.1,-56.6 260,-110.2 57.9,-53.6 87.3,-173.6 87.3,-173.6 l -392.4,103.3 45.1,180.5" /><path
         id="path424"
         style="fill:#f99746;fill-opacity:1;fill-rule:nonzero;stroke:none"
         d="m 11334.7,3526 c -194,23.4 -620.9,194.3 -779.2,389.6 -181.4,224.1 -903.85,1462.8 -769.09,1835.7 47.95,132.8 137.06,669.5 248.29,660.5 101.3,-8.1 246.6,-214.1 279.5,-344.1 133.4,-528.4 315.5,-1551.3 455.5,-1668.6 127.1,-106.4 424.3,-452.9 568.5,-681.6 0,-0.1 0.1,-0.2 0.1,-0.3 44.7,-100 23.7,-150.8 -3.6,-191.2" /><path
         id="path426"
         style="fill:#163560;fill-opacity:1;fill-rule:nonzero;stroke:none"
         d="m 4814.07,2892.9 c 85.27,-6.6 170.53,-10.6 254.46,-13.3 82.6,-2.7 163.86,-4 241.13,-4 58.62,0 114.57,0 167.86,1.3 87.92,1.4 169.19,4 239.8,6.7 0,1.3 0,4 1.33,5.3 58.62,0 117.24,2.7 173.19,4 H 4814.07" /><path
         id="path428"
         style="fill:#93312c;fill-opacity:1;fill-rule:nonzero;stroke:none"
         d="m 12318.5,5898.4 -1.4,-13.3 h -1.3 l -18.7,-122.6 v -1.3 l -14.6,-99.9 -62.6,-406.3 -16,-104 -36,-233.1 -14.6,-102.6 -293.1,-1913 -12,-77.3 h -500.9 c -9.4,25.3 -17.3,50.6 -25.3,77.3 -72,237.1 -119.9,482.2 -104,690.1 6.7,81.2 29.4,178.5 64,287.7 85.3,266.5 241.1,599.5 406.3,917.9 20,36 38.7,71.9 57.3,106.6 46.6,86.6 91.9,170.5 135.9,250.4 10.6,18.7 21.3,37.3 32,54.7 0,1.3 0,2.6 1.3,4 9.3,15.9 17.3,30.6 26.6,45.2 171.9,305.1 318.4,544.9 362.4,616.9 l 1.3,1.3 c 1.4,1.3 1.4,1.3 1.4,2.7 8,12 12,18.6 12,18.6" /><path
         id="path430"
         style="fill:#ffb27d;fill-opacity:1;fill-rule:nonzero;stroke:none"
         d="m 12482.2,5796.3 346.3,-256.4 500.3,105.4 c -6.9,45.6 -39.9,234.7 -70,406 -1.8,10.1 -3.6,20.2 -5.3,30.1 -25.8,145.7 -48.1,270.9 -48.1,270.9 l -467.3,233 -174.2,86.8 c 0.4,-3.1 13.5,-161.7 15.3,-184.9 32.7,-411.4 -97,-690.9 -97,-690.9" /><path
         id="path432"
         style="fill:#93312c;fill-opacity:1;fill-rule:nonzero;stroke:none"
         d="m 13293.8,5925.7 c -11,4.7 -680.6,202.3 -753.4,178.3 -72.7,-24.1 -115.8,-164.8 -115.8,-164.8 L 13520,5691.5 c 0,0 -86.2,175.3 -226.2,234.2" /><path
         id="path434"
         style="fill:#b5453c;fill-opacity:1;fill-rule:nonzero;stroke:none"
         d="m 13942.4,2825 h -2441.9 c 1.3,25.3 4,50.6 5.3,77.3 50.6,620.8 142.5,1326.9 287.8,1902.4 9.3,35.9 18.6,70.6 27.9,105.2 22.7,85.3 48,167.9 73.3,245.1 5.3,18.7 12,36 18.7,54.7 0,1.3 0,2.6 1.3,4 5.3,14.6 10.7,30.6 16,45.2 103.9,287.8 227.8,509 373,616.9 l 1.3,1.3 c 1.4,1.3 1.4,1.3 1.4,2.7 4,2.6 6.6,4 9.3,5.3 h 1.3 c 34.7,25.3 70.6,44 107.9,54.6 22.7,6.7 60,6.7 106.6,2.7 191.9,-17.3 550.2,-117.3 778,-185.2 101.3,-30.6 177.2,-54.6 201.2,-62.6 4,-1.3 5.3,-1.3 6.7,-1.3 1.3,0 1.3,0 1.3,0 1.3,-1.4 1.3,-1.4 1.3,-1.4 0,0 69.3,-178.5 142.6,-447.6 33.3,-122.6 67.9,-263.8 97.2,-414.3 44,-225.2 77.3,-475.6 80,-719.4 1.3,-94.6 6.6,-206.5 14.6,-329.1 2.7,-41.3 6.7,-83.9 9.3,-126.5 2.7,-28 5.4,-57.3 6.7,-86.6 4,-37.3 8,-76 10.7,-115.9 6.6,-69.3 13.3,-141.3 19.9,-213.2 5.4,-47.9 9.4,-95.9 14.7,-145.2 5.3,-63.9 12,-127.9 18.6,-191.8 2.7,-25.4 5.4,-52 8,-77.3" /><path
         id="path436"
         style="fill:#93312c;fill-opacity:1;fill-rule:nonzero;stroke:none"
         d="m 13942.4,2825 h -658.1 c -10.6,25.3 -20,50.6 -29.3,77.3 -181.2,514.2 -174.5,1089.7 -133.2,1496 30.6,317.1 82.6,530.3 82.6,530.3 l 555.5,-98.6 c 44,-225.2 77.3,-475.6 80,-719.4 1.3,-94.6 6.6,-206.5 14.6,-329.1 2.7,-41.3 6.7,-83.9 9.3,-126.5 2.7,-28 5.4,-57.3 6.7,-86.6 4,-37.3 8,-76 10.7,-115.9 6.6,-69.3 13.3,-141.3 19.9,-213.2 5.4,-47.9 9.4,-95.9 14.7,-145.2 5.3,-63.9 12,-127.9 18.6,-191.8 2.7,-25.4 5.4,-52 8,-77.3" /><path
         id="path438"
         style="fill:#fca56b;fill-opacity:1;fill-rule:nonzero;stroke:none"
         d="m 12614.3,6479.9 c 102.6,-196.3 485,-366.2 644.5,-428.6 -1.8,10.1 -3.6,20.2 -5.3,30.1 -25.8,145.7 -48.1,270.9 -48.1,270.9 l -467.3,233 c -103.3,1.6 -166.2,-24.5 -123.8,-105.4" /><path
         id="path440"
         style="fill:#ffb27d;fill-opacity:1;fill-rule:nonzero;stroke:none"
         d="m 13356,6341.7 c 0,0 -691.8,-215.8 -819.5,217.1 -127.8,432.9 -303.1,696.6 133.2,852.7 436.3,156 571.2,16.3 649,-117.8 77.8,-134.1 214,-884.7 37.3,-952" /><path
         id="path442"
         style="fill:#163560;fill-opacity:1;fill-rule:nonzero;stroke:none"
         d="m 13291.5,7335.4 c 0,0 -44.1,-503.7 -148.3,-481.9 -104.1,21.9 -198.6,38.1 -183.4,-113.7 15.3,-151.9 159.8,-327.2 -161.3,-354.1 -321.1,-26.9 -782.6,801.1 -694.4,957.9 254.5,452.3 1555.3,543.6 1187.4,-8.2" /><path
         id="path444"
         style="fill:#b5453c;fill-opacity:1;fill-rule:nonzero;stroke:none"
         d="m 14751.1,2825 h -1128.4 c -10.7,24 -21.3,50.6 -33.3,77.3 -157.2,386.3 -335.7,1009.8 -467.6,1496 -107.9,397 -183.9,703.4 -191.8,711.4 0,0 62.6,435.7 398.3,535.6 98.6,29.3 217.1,-141.2 334.4,-401 283.7,-623.5 564.8,-1761.2 570.2,-1859.8 5.3,-63.9 209.1,-271.8 434.3,-482.2 27.9,-26.7 55.9,-52 83.9,-77.3" /><path
         id="path446"
         style="fill:#163560;fill-opacity:1;fill-rule:nonzero;stroke:none"
         d="m 11064.7,4838.5 c -27.9,87.6 -54.5,168.6 -81,244.3 329.2,41.7 1113.3,124.7 1525,30.3 0.1,-0.2 0.2,-0.5 0.3,-0.7 26.6,-69.1 53.1,-144.8 79.7,-224.6 -469,76.4 -1233,-10.7 -1524,-49.3 z m 2066.4,-1936.2 c -40,736.7 -149.2,1380.1 -281.1,1817.1 -194.5,646.1 -369,1016.5 -371.7,1020.5 -13.3,26.6 -58.6,42.6 -131.9,35.9 -21.3,-1.3 -37.3,-6.6 -49.3,-13.3 v -1.3 c -35.9,-20 -35.9,-57.3 -25.3,-77.3 0,-1.3 4,-8 10.7,-22.6 26.6,-53.3 97.2,-203.8 185.2,-434.3 v -0.1 c -457.1,79 -1210.5,-3.9 -1518.7,-44 0,0 0,0.1 -0.1,0.1 -125.2,357 -218.4,554.2 -219.8,556.9 -13.3,26.6 -58.6,42.6 -133.2,35.9 -83.9,-7.9 -86.6,-65.2 -73.3,-91.9 6.7,-13.3 588.9,-1168.3 730.1,-2781.6 2.7,-25.4 4,-50.7 5.3,-77.3 h 127.9 c 0,26.6 -1.3,51.9 -4,77.3 -18.6,351.7 -54.6,682.1 -99.9,977.8 -50.6,325.1 -113.2,610.2 -181.2,839.3 -1.3,6.7 -4,13.3 -5.3,18.6 308.3,39.9 1101.7,127.5 1529.2,37.8 0.1,-0.1 0.1,-0.3 0.2,-0.4 153.2,-482.3 311.7,-1128.4 377,-1873.1 2.7,-25.4 4,-50.7 5.3,-77.3 h 129.2 c -1.3,26.6 -2.6,51.9 -5.3,77.3" /><path
         id="path448"
         style="fill:#f4a269;fill-opacity:1;fill-rule:nonzero;stroke:none"
         d="m 5591.06,4916.4 c 0,0 474.57,-721.1 591.28,-726.5 119.29,-5.5 196.26,21.7 292.16,-40.2 68.91,-44.6 275.93,-264 215.12,-242.9 -60.8,21 -171.9,51.1 -201.36,58 -40.57,9.6 -106.47,19.6 -150.18,33.6 -27.66,8.8 -129.58,25.8 -163.55,31.6 -147.57,25.4 -792.28,531.7 -792.28,531.7 l 208.81,354.7" /><path
         id="path450"
         style="fill:#163560;fill-opacity:1;fill-rule:nonzero;stroke:none"
         d="m 7094.83,3804.2 c -79.93,50.6 -230.47,98.5 -415.65,141.2 -165.2,38.6 -358.37,73.3 -558.2,103.9 h -1.34 c -177.17,28 -359.69,53.3 -530.22,74.6 -137.21,17.3 -266.44,32 -381.01,44 -46.62,5.3 -90.59,9.3 -130.55,14.6 -190.52,18.7 -313.08,29.3 -313.08,29.3 l -394.33,-89.2 c 0,0 -7.99,-16 -18.65,-45.3 -73.27,-38.7 -462.29,-251.8 -544.89,-544.9 v -10.7 c -15.98,-51.9 -21.3,-98.5 -13.32,-155.8 4,-25.4 10.67,-52 19.98,-80 6.67,-18.6 14.66,-37.3 25.32,-57.2 19.98,-38.7 49.29,-72 86.59,-101.3 1.34,0 1.34,0 1.34,0 69.27,-58.6 166.52,-102.6 281.1,-137.2 154.54,-46.6 341.04,-74.6 534.21,-91.9 23.98,-2.7 47.96,-4 71.94,-5.4 85.27,-6.6 170.53,-10.6 254.46,-13.3 82.6,-2.7 163.86,-4 241.13,-4 58.62,0 114.57,0 167.86,1.3 87.92,1.4 169.19,4 239.8,6.7 0,1.3 0,4 1.33,5.3 58.62,0 117.24,2.7 173.19,4 h 764.69 257.12 614.15 c -149.21,458.3 -303.74,830 -432.97,911.3" /><path
         id="path452"
         style="fill:#ffb27d;fill-opacity:1;fill-rule:nonzero;stroke:none"
         d="m 3823.73,6386.3 c 0.65,0.9 1.48,1.8 2.31,2.8 14.3,16.1 31.4,30.9 50.31,44 l 0.66,0.5 c 0,0 0,0 0.16,0 147.32,102.9 410.56,125 410.56,125 v -0.2 h 0.01 c 0.01,0 0.02,0.1 0.03,0.1 0,0 28.78,2.8 74.34,4.8 34.52,89.5 73.81,222 86,415.4 l 26.1,-7 438.81,-117.7 c 0,0 -19.45,-139.3 -28.54,-271.1 -2,-28.9 -3.48,-57.3 -4.17,-84 12.71,-4.6 24.47,-9.2 34.85,-13.5 0,0 0.01,0 0.02,0 h -0.01 c 0,0 250.9,-29.6 310.26,-93.4 59.36,-63.9 178.07,-488.8 207.99,-564.1 l -1689.44,-27.6 c 0,0 -42.42,441.4 79.75,586" /><path
         id="path454"
         style="fill:#599dad;fill-opacity:1;fill-rule:nonzero;stroke:none"
         d="m 5737.14,4822.1 c -61.28,49.3 -303.74,1005.8 -303.74,1005.8 -29.31,74.6 -61.29,487.6 -207.82,563.5 0,0 -113.25,-41.3 -263.78,-82.6 -167.86,-47.9 -385.01,-95.9 -543.55,-87.9 -298.42,16 -532.89,207.8 -540.88,213.2 l -1.33,-1.3 -51.96,-46.7 c -33.63,-39.5 -54.8,-101.4 -67.85,-170.5 -166.62,-318.8 -439.7,-911.4 -362.46,-1243 75.94,-326.4 367.7,-446.3 538.22,-487.6 h 1.33 c 6.12,-1.5 12.02,-2.9 17.81,-4.2 -47.89,-218.3 -149.86,-522.7 -205.65,-757.8 -47.97,-201.2 -62.61,-350.4 15.99,-358.4 199.83,-18.6 873.93,387.7 1099.08,520.9 3.99,1.4 6.66,4 10.65,6.7 93.26,54.6 225.14,79.9 350.37,101.3 159.87,25.3 307.75,43.9 355.72,99.9 57.28,67.9 -109.25,143.9 -243.8,221.1 -67.95,40 -126.57,80 -145.22,119.9 -14.65,32 -13.32,101.3 -3.99,189.2 1.33,16 3.99,33.3 6.66,51.9 10.66,-22.6 23.98,-46.6 39.96,-69.2 39.96,-60 91.92,-118.6 142.55,-167.9 63.94,-59.9 127.89,-105.2 166.53,-114.6 26.64,-6.6 53.29,-4 79.93,6.7 70.61,28 137.22,105.3 191.84,178.5 11.99,18.7 23.98,36 34.64,52 37.3,55.9 63.95,102.6 73.27,113.2 29.31,33.3 -119.9,98.6 -182.52,147.9" /><path
         id="path456"
         style="fill:#f4a269;fill-opacity:1;fill-rule:nonzero;stroke:none"
         d="m 4913.02,6854 c 0,0 -19.45,-139.3 -28.54,-271.1 -248.37,23.6 -364.76,259.4 -410.27,388.8 L 4913.02,6854" /><path
         id="path458"
         style="fill:#ffb27d;fill-opacity:1;fill-rule:nonzero;stroke:none"
         d="m 5100.24,6774.4 c 0,0 -580.13,-108.1 -641.93,254.2 -61.79,362.3 -178.29,592.4 189.5,676.7 367.8,84.4 463.53,-41.6 513.57,-157.5 50.04,-115.9 88.18,-735.9 -61.14,-773.4" /><path
         id="path460"
         style="fill:#b5453c;fill-opacity:1;fill-rule:nonzero;stroke:none"
         d="m 5093.62,7840.4 c 0,0 -23.97,304.1 -461.48,225.2 -115.68,-20.9 -195.18,185.3 -384.53,111.8 -407.71,-158.2 -431.68,50.7 -549.52,-242.5 -49.33,-122.8 -362.98,-265.7 -267.19,-477.8 95.79,-212.2 -64.49,-354.8 48.11,-521.1 58.28,-86 34.6,-239.7 309.52,-245.2 136.91,-2.8 350.17,-256.5 503.82,-302.5 153.66,-46.1 615.05,20.4 597.66,231.2 -13.56,164.4 -152,307.5 -34.16,496.6 102.99,165.2 324.84,175.4 423.11,442.6 72.03,195.8 -190.97,118.3 -185.34,281.7" /><path
         id="path462"
         style="fill:#6bb7bf;fill-opacity:1;fill-rule:nonzero;stroke:none"
         d="m 5919.65,4674.2 c -452.95,74.6 -436.96,299.8 -587.5,937.9 -86.6,366.4 -249.12,580.8 -370.35,696.7 150.53,41.3 263.78,82.6 263.78,82.6 146.53,-75.9 178.51,-488.9 207.82,-563.5 0,0 242.46,-956.5 303.74,-1005.8 62.62,-49.3 211.83,-114.6 182.51,-147.9" /><path
         id="path464"
         style="fill:#163560;fill-opacity:1;fill-rule:nonzero;stroke:none"
         d="M 6681.85,2990.2 H 3738.97 c -3.99,9.3 -6.66,20 -10.65,30.6 v 1.4 c 13.32,17.3 38.63,38.6 86.59,62.6 99.91,49.3 302.41,103.9 711.41,133.2 106.57,8 227.8,13.3 363.69,17.3 97.25,2.7 190.51,4 277.1,4 h 97.26 c 201.16,0 373.01,-6.6 520.89,-16 31.98,-2.6 62.62,-4 91.93,-6.6 265.11,-21.4 442.29,-54.7 562.19,-90.6 9.33,-2.7 19.99,-5.3 27.98,-8 27.97,-9.4 51.95,-17.3 73.27,-26.7 10.66,-4 19.99,-9.3 29.31,-13.3 30.64,-13.3 53.29,-28 69.27,-40 5.33,-3.9 9.33,-6.6 12,-10.6 2.66,-1.3 5.32,-4 7.99,-6.7 2.66,-2.6 5.33,-4 6.66,-6.6 13.32,-14.7 15.99,-24 15.99,-24" /><path
         id="path466"
         style="fill:#163560;fill-opacity:1;fill-rule:nonzero;stroke:none"
         d="m 5718.65,2898.3 c 0,0 0,-2.7 0,-5.4 v -4 c -1.33,-1.3 -1.33,-4 -1.33,-5.3 -70.61,-2.7 -151.88,-5.3 -239.8,-6.7 v 12 c 0,1.4 1.33,2.7 1.33,4 v 5.4 c 1.33,20 4,30.6 5.33,33.3 10.66,14.6 83.93,14.6 129.22,13.3 h 30.65 c 26.64,-1.3 75.93,-22.7 74.6,-46.6" /><path
         id="path468"
         style="fill:#163560;fill-opacity:1;fill-rule:nonzero;stroke:none"
         d="m 6536.63,2892.9 h -239.8 v 5.4 c 0,6.6 1.33,13.3 1.33,17.3 1.34,9.3 2.67,14.6 4.01,16 13.31,20 131.88,13.3 159.86,13.3 h 1.33 c 13.32,0 31.97,-6.7 46.63,-14.7 15.99,-8 27.97,-20 26.64,-31.9 0,0 0,-2.7 0,-5.4" /><path
         id="path470"
         style="fill:#163560;fill-opacity:1;fill-rule:nonzero;stroke:none"
         d="m 6744.45,2944.9 c 0,-13.3 -5.32,-24 -13.31,-33.3 -5.33,-5.4 -12,-9.3 -19.99,-10.7 -3.99,-2.6 -8,-2.6 -11.98,-2.6 H 3962.79 c 0,1.3 0,1.3 0,2.6 h -197.17 c 0,0 -3.99,10.7 -10.66,32 0,2.7 -1.33,5.3 -2.66,8 -2.67,13.3 -7.99,29.3 -13.33,49.3 h 2960.2 c 23.97,0 45.28,-20 45.28,-45.3" /><path
         id="path472"
         style="fill:#163560;fill-opacity:1;fill-rule:nonzero;stroke:none"
         d="m 4440.55,2990.3 h 2240.97 c 0,0 -69.23,287.2 -1791.02,244.4 -136.77,-3.4 -257.72,-9.1 -364.77,-16.7 5.4,-35.6 14.28,-152.4 -85.18,-227.7" /><path
         id="path474"
         style="fill:#163560;fill-opacity:1;fill-rule:nonzero;stroke:none"
         d="m 5356.28,2944.9 c 0,-13.3 -5.32,-24 -14.64,-33.3 -5.33,-5.4 -12,-9.3 -19.99,-10.7 -3.99,-2.6 -8,-2.6 -11.99,-2.6 H 3962.79 c 0,1.3 0,1.3 0,2.6 h -197.17 c 0,0 -3.99,10.7 -10.66,32 0,2.7 -1.33,5.3 -2.66,8 -2.67,13.3 -7.99,29.3 -13.33,49.3 h 1570.69 c 25.32,0 46.62,-20 46.62,-45.3" /><path
         id="path476"
         style="fill:#163560;fill-opacity:1;fill-rule:nonzero;stroke:none"
         d="m 3814.91,3084.8 c 0,-30.7 0,-62.6 -1.34,-94.6 v -9.3 c 0,-16 -10.65,-30.7 -26.63,-37.3 h -1.33 c -4.01,-1.4 -9.33,-2.7 -14.66,-4 h -1.33 c -1.33,0 -2.67,-1.4 -4,-1.4 h -1.34 c -3.99,0 -7.99,1.4 -11.98,2.7 -2.67,13.3 -7.99,29.3 -13.33,49.3 -3.99,9.3 -6.66,20 -10.65,30.6 v 1.4 c -2.67,12 -6.67,25.3 -10.66,39.9 v 1.4 c 0,126.5 -4,249.1 -9.33,370.3 -9.33,183.9 -26.64,362.4 -49.29,531.6 -53.29,407.6 -138.55,771.3 -225.14,1072.4 -50.63,170.5 -101.25,322.4 -146.55,451.6 -51.95,142.6 -99.91,255.8 -134.55,337.1 0,1.3 -1.34,1.3 -1.34,2.6 -3.99,26.7 -6.66,54.7 -9.32,81.3 0,4 -1.33,6.7 -1.33,10.7 v 1.3 c -5.33,40 -9.33,78.6 -13.32,119.9 5.32,2.7 11.98,4 19.98,4 61.28,5.3 99.91,-8 110.57,-29.3 1.34,-1.3 78.61,-166.5 182.52,-462.3 9.32,-26.6 18.65,-53.3 29.31,-82.6 19.98,-62.6 42.63,-130.6 65.28,-203.8 9.32,-26.7 17.32,-54.6 25.31,-82.6 2.67,-4 3.99,-9.4 5.33,-14.7 13.32,-42.6 25.31,-86.6 35.97,-133.2 39.96,-146.5 74.6,-315.7 105.24,-500.9 v -4 c 38.64,-233.1 67.94,-494.3 87.93,-772.7 13.32,-215.8 21.31,-442.3 19.98,-675.4" /><path
         id="path478"
         style="fill:#163560;fill-opacity:1;fill-rule:nonzero;stroke:none"
         d="m 5215.82,2938.8 c -0.24,0 -0.47,0 -0.7,0 -26.66,0.4 -47.95,19.8 -47.57,43.4 27.11,1682.3 -623.42,2975.7 -630,2988.6 -10.99,21.5 -8.9,69.6 61.19,75.7 61.29,5.3 99.31,-8 110.31,-29.5 1.67,-3.3 146.77,-311.1 307.95,-846.1 148.62,-493.3 261.39,-1301 247.06,-2189.9 -0.38,-23.4 -21.91,-42.2 -48.24,-42.2" /><path
         id="path480"
         style="fill:#163560;fill-opacity:1;fill-rule:nonzero;stroke:none"
         d="m 3335.53,5454.2 c -23.09,0 -43.49,14.7 -47.52,35.6 -4.48,23.3 13.17,45.4 39.44,49.4 41.79,6.3 1028.42,153.6 1470.05,30.7 25.43,-7.1 39.58,-31.1 31.59,-53.6 -7.98,-22.6 -35.07,-35.2 -60.5,-28 -419.45,116.7 -1414.88,-32 -1424.88,-33.5 -2.75,-0.4 -5.48,-0.6 -8.18,-0.6" /><path
         id="path482"
         style="fill:#163560;fill-opacity:1;fill-rule:nonzero;stroke:none"
         d="m 3448.3,5170.9 c -23.09,0 -43.49,14.7 -47.52,35.6 -4.49,23.3 13.17,45.4 39.44,49.3 41.79,6.4 1028.42,153.7 1470.05,30.8 25.43,-7.1 39.57,-31.1 31.59,-53.7 -7.99,-22.5 -35.07,-35.1 -60.5,-27.9 -419.63,116.7 -1414.88,-32 -1424.87,-33.5 -2.75,-0.4 -5.49,-0.6 -8.19,-0.6" /><path
         id="path484"
         style="fill:#163560;fill-opacity:1;fill-rule:nonzero;stroke:none"
         d="m 3765.62,2900.9 c 0,0 -3.99,10.7 -10.66,32 2.66,2.7 5.33,4 9.32,5.3 h 1.34 c 1.33,0 2.67,1.4 4,1.4 h 1.33 c 5.33,1.3 10.65,2.6 14.66,4 h 1.33 c 3.99,0 6.65,1.3 10.65,1.3 26.64,0 145.21,6.7 159.87,-13.3 1.33,-2.7 2.66,-12 5.33,-30.7 h -197.17" /><path
         id="path486"
         style="fill:#163560;fill-opacity:1;fill-rule:nonzero;stroke:none"
         d="m 5309.66,2875.6 c -77.27,0 -158.53,1.3 -241.13,4 0,5.3 0,9.3 -1.33,13.3 v 5.4 c 0,6.6 -1.34,11.9 -1.34,17.3 v 13.3 c -1.33,24 47.96,45.3 74.61,46.6 h 27.98 c 26.64,1.4 65.28,1.4 94.58,-1.3 18.65,-2.7 33.3,-5.3 37.31,-12 2.66,-4 5.32,-25.3 7.99,-63.9 v -4 c 0,0 0,0 0,-1.4 0,-5.3 1.33,-10.6 1.33,-17.3" /><g
         transform="scale(1.87055)"
         id="g488"><path
           id="path490"
           style="fill:#2e3552;fill-opacity:1;fill-rule:nonzero;stroke:none"
           d="m 16300,1534.47 v -6.41 c 0,-10 -7.8,-17.81 -17.8,-17.81 H 676.3 c -9.971,0 -17.809,7.81 -17.809,17.81 v 6.41 c 0,9.25 7.838,17.11 17.809,17.11 h 15605.9 c 10,0 17.8,-7.86 17.8,-17.11" /></g></g></g></svg>